%TF.GenerationSoftware,KiCad,Pcbnew,8.0.5*%
%TF.CreationDate,2024-12-18T11:28:25+01:00*%
%TF.ProjectId,Antenna_switch,416e7465-6e6e-4615-9f73-77697463682e,rev?*%
%TF.SameCoordinates,Original*%
%TF.FileFunction,Drillmap*%
%TF.FilePolarity,Positive*%
%FSLAX45Y45*%
G04 Gerber Fmt 4.5, Leading zero omitted, Abs format (unit mm)*
G04 Created by KiCad (PCBNEW 8.0.5) date 2024-12-18 11:28:25*
%MOMM*%
%LPD*%
G01*
G04 APERTURE LIST*
%ADD10C,0.050000*%
%ADD11C,0.200000*%
%ADD12C,0.100000*%
G04 APERTURE END LIST*
D10*
X18375000Y-9750000D02*
G75*
G02*
X18075000Y-9750000I-150000J0D01*
G01*
X18075000Y-9750000D02*
G75*
G02*
X18375000Y-9750000I150000J0D01*
G01*
X18352069Y-4000000D02*
G75*
G02*
X18047931Y-4000000I-152069J0D01*
G01*
X18047931Y-4000000D02*
G75*
G02*
X18352069Y-4000000I152069J0D01*
G01*
X10002069Y-9750000D02*
G75*
G02*
X9697931Y-9750000I-152069J0D01*
G01*
X9697931Y-9750000D02*
G75*
G02*
X10002069Y-9750000I152069J0D01*
G01*
X9525000Y-3675000D02*
X18525000Y-3675000D01*
X18525000Y-10075000D01*
X9525000Y-10075000D01*
X9525000Y-3675000D01*
X10027069Y-4000000D02*
G75*
G02*
X9722931Y-4000000I-152069J0D01*
G01*
X9722931Y-4000000D02*
G75*
G02*
X10027069Y-4000000I152069J0D01*
G01*
D11*
D12*
X13625000Y-5325000D02*
X13675000Y-5375000D01*
X13675000Y-5325000D02*
X13625000Y-5375000D01*
X15250000Y-5200000D02*
X15300000Y-5250000D01*
X15300000Y-5200000D02*
X15250000Y-5250000D01*
X15325000Y-6050000D02*
X15375000Y-6100000D01*
X15375000Y-6050000D02*
X15325000Y-6100000D01*
X15325000Y-6700000D02*
X15375000Y-6750000D01*
X15375000Y-6700000D02*
X15325000Y-6750000D01*
X15450000Y-4300000D02*
X15500000Y-4350000D01*
X15500000Y-4300000D02*
X15450000Y-4350000D01*
X15475000Y-4500000D02*
X15525000Y-4550000D01*
X15525000Y-4500000D02*
X15475000Y-4550000D01*
X16000000Y-4275000D02*
X16050000Y-4325000D01*
X16050000Y-4275000D02*
X16000000Y-4325000D01*
X16915000Y-4635000D02*
X16965000Y-4685000D01*
X16965000Y-4635000D02*
X16915000Y-4685000D01*
D11*
X9783277Y-10388984D02*
X9783277Y-10188984D01*
X9783277Y-10188984D02*
X9830896Y-10188984D01*
X9830896Y-10188984D02*
X9859467Y-10198508D01*
X9859467Y-10198508D02*
X9878515Y-10217555D01*
X9878515Y-10217555D02*
X9888039Y-10236603D01*
X9888039Y-10236603D02*
X9897563Y-10274698D01*
X9897563Y-10274698D02*
X9897563Y-10303270D01*
X9897563Y-10303270D02*
X9888039Y-10341365D01*
X9888039Y-10341365D02*
X9878515Y-10360412D01*
X9878515Y-10360412D02*
X9859467Y-10379460D01*
X9859467Y-10379460D02*
X9830896Y-10388984D01*
X9830896Y-10388984D02*
X9783277Y-10388984D01*
X9983277Y-10388984D02*
X9983277Y-10255650D01*
X9983277Y-10293746D02*
X9992801Y-10274698D01*
X9992801Y-10274698D02*
X10002324Y-10265174D01*
X10002324Y-10265174D02*
X10021372Y-10255650D01*
X10021372Y-10255650D02*
X10040420Y-10255650D01*
X10107086Y-10388984D02*
X10107086Y-10255650D01*
X10107086Y-10188984D02*
X10097563Y-10198508D01*
X10097563Y-10198508D02*
X10107086Y-10208031D01*
X10107086Y-10208031D02*
X10116610Y-10198508D01*
X10116610Y-10198508D02*
X10107086Y-10188984D01*
X10107086Y-10188984D02*
X10107086Y-10208031D01*
X10230896Y-10388984D02*
X10211848Y-10379460D01*
X10211848Y-10379460D02*
X10202324Y-10360412D01*
X10202324Y-10360412D02*
X10202324Y-10188984D01*
X10335658Y-10388984D02*
X10316610Y-10379460D01*
X10316610Y-10379460D02*
X10307086Y-10360412D01*
X10307086Y-10360412D02*
X10307086Y-10188984D01*
X10564229Y-10388984D02*
X10564229Y-10188984D01*
X10564229Y-10188984D02*
X10630896Y-10331841D01*
X10630896Y-10331841D02*
X10697563Y-10188984D01*
X10697563Y-10188984D02*
X10697563Y-10388984D01*
X10878515Y-10388984D02*
X10878515Y-10284222D01*
X10878515Y-10284222D02*
X10868991Y-10265174D01*
X10868991Y-10265174D02*
X10849944Y-10255650D01*
X10849944Y-10255650D02*
X10811848Y-10255650D01*
X10811848Y-10255650D02*
X10792801Y-10265174D01*
X10878515Y-10379460D02*
X10859467Y-10388984D01*
X10859467Y-10388984D02*
X10811848Y-10388984D01*
X10811848Y-10388984D02*
X10792801Y-10379460D01*
X10792801Y-10379460D02*
X10783277Y-10360412D01*
X10783277Y-10360412D02*
X10783277Y-10341365D01*
X10783277Y-10341365D02*
X10792801Y-10322317D01*
X10792801Y-10322317D02*
X10811848Y-10312793D01*
X10811848Y-10312793D02*
X10859467Y-10312793D01*
X10859467Y-10312793D02*
X10878515Y-10303270D01*
X10973753Y-10255650D02*
X10973753Y-10455650D01*
X10973753Y-10265174D02*
X10992801Y-10255650D01*
X10992801Y-10255650D02*
X11030896Y-10255650D01*
X11030896Y-10255650D02*
X11049944Y-10265174D01*
X11049944Y-10265174D02*
X11059467Y-10274698D01*
X11059467Y-10274698D02*
X11068991Y-10293746D01*
X11068991Y-10293746D02*
X11068991Y-10350889D01*
X11068991Y-10350889D02*
X11059467Y-10369936D01*
X11059467Y-10369936D02*
X11049944Y-10379460D01*
X11049944Y-10379460D02*
X11030896Y-10388984D01*
X11030896Y-10388984D02*
X10992801Y-10388984D01*
X10992801Y-10388984D02*
X10973753Y-10379460D01*
X11154705Y-10369936D02*
X11164229Y-10379460D01*
X11164229Y-10379460D02*
X11154705Y-10388984D01*
X11154705Y-10388984D02*
X11145182Y-10379460D01*
X11145182Y-10379460D02*
X11154705Y-10369936D01*
X11154705Y-10369936D02*
X11154705Y-10388984D01*
X11154705Y-10265174D02*
X11164229Y-10274698D01*
X11164229Y-10274698D02*
X11154705Y-10284222D01*
X11154705Y-10284222D02*
X11145182Y-10274698D01*
X11145182Y-10274698D02*
X11154705Y-10265174D01*
X11154705Y-10265174D02*
X11154705Y-10284222D01*
D12*
X9472500Y-10692500D02*
X9522500Y-10742500D01*
X9522500Y-10692500D02*
X9472500Y-10742500D01*
D11*
X9821372Y-10608984D02*
X9840420Y-10608984D01*
X9840420Y-10608984D02*
X9859467Y-10618508D01*
X9859467Y-10618508D02*
X9868991Y-10628031D01*
X9868991Y-10628031D02*
X9878515Y-10647079D01*
X9878515Y-10647079D02*
X9888039Y-10685174D01*
X9888039Y-10685174D02*
X9888039Y-10732793D01*
X9888039Y-10732793D02*
X9878515Y-10770889D01*
X9878515Y-10770889D02*
X9868991Y-10789936D01*
X9868991Y-10789936D02*
X9859467Y-10799460D01*
X9859467Y-10799460D02*
X9840420Y-10808984D01*
X9840420Y-10808984D02*
X9821372Y-10808984D01*
X9821372Y-10808984D02*
X9802324Y-10799460D01*
X9802324Y-10799460D02*
X9792801Y-10789936D01*
X9792801Y-10789936D02*
X9783277Y-10770889D01*
X9783277Y-10770889D02*
X9773753Y-10732793D01*
X9773753Y-10732793D02*
X9773753Y-10685174D01*
X9773753Y-10685174D02*
X9783277Y-10647079D01*
X9783277Y-10647079D02*
X9792801Y-10628031D01*
X9792801Y-10628031D02*
X9802324Y-10618508D01*
X9802324Y-10618508D02*
X9821372Y-10608984D01*
X9973753Y-10789936D02*
X9983277Y-10799460D01*
X9983277Y-10799460D02*
X9973753Y-10808984D01*
X9973753Y-10808984D02*
X9964229Y-10799460D01*
X9964229Y-10799460D02*
X9973753Y-10789936D01*
X9973753Y-10789936D02*
X9973753Y-10808984D01*
X10164229Y-10608984D02*
X10068991Y-10608984D01*
X10068991Y-10608984D02*
X10059467Y-10704222D01*
X10059467Y-10704222D02*
X10068991Y-10694698D01*
X10068991Y-10694698D02*
X10088039Y-10685174D01*
X10088039Y-10685174D02*
X10135658Y-10685174D01*
X10135658Y-10685174D02*
X10154705Y-10694698D01*
X10154705Y-10694698D02*
X10164229Y-10704222D01*
X10164229Y-10704222D02*
X10173753Y-10723270D01*
X10173753Y-10723270D02*
X10173753Y-10770889D01*
X10173753Y-10770889D02*
X10164229Y-10789936D01*
X10164229Y-10789936D02*
X10154705Y-10799460D01*
X10154705Y-10799460D02*
X10135658Y-10808984D01*
X10135658Y-10808984D02*
X10088039Y-10808984D01*
X10088039Y-10808984D02*
X10068991Y-10799460D01*
X10068991Y-10799460D02*
X10059467Y-10789936D01*
X10297563Y-10608984D02*
X10316610Y-10608984D01*
X10316610Y-10608984D02*
X10335658Y-10618508D01*
X10335658Y-10618508D02*
X10345182Y-10628031D01*
X10345182Y-10628031D02*
X10354705Y-10647079D01*
X10354705Y-10647079D02*
X10364229Y-10685174D01*
X10364229Y-10685174D02*
X10364229Y-10732793D01*
X10364229Y-10732793D02*
X10354705Y-10770889D01*
X10354705Y-10770889D02*
X10345182Y-10789936D01*
X10345182Y-10789936D02*
X10335658Y-10799460D01*
X10335658Y-10799460D02*
X10316610Y-10808984D01*
X10316610Y-10808984D02*
X10297563Y-10808984D01*
X10297563Y-10808984D02*
X10278515Y-10799460D01*
X10278515Y-10799460D02*
X10268991Y-10789936D01*
X10268991Y-10789936D02*
X10259467Y-10770889D01*
X10259467Y-10770889D02*
X10249944Y-10732793D01*
X10249944Y-10732793D02*
X10249944Y-10685174D01*
X10249944Y-10685174D02*
X10259467Y-10647079D01*
X10259467Y-10647079D02*
X10268991Y-10628031D01*
X10268991Y-10628031D02*
X10278515Y-10618508D01*
X10278515Y-10618508D02*
X10297563Y-10608984D01*
X10488039Y-10608984D02*
X10507086Y-10608984D01*
X10507086Y-10608984D02*
X10526134Y-10618508D01*
X10526134Y-10618508D02*
X10535658Y-10628031D01*
X10535658Y-10628031D02*
X10545182Y-10647079D01*
X10545182Y-10647079D02*
X10554705Y-10685174D01*
X10554705Y-10685174D02*
X10554705Y-10732793D01*
X10554705Y-10732793D02*
X10545182Y-10770889D01*
X10545182Y-10770889D02*
X10535658Y-10789936D01*
X10535658Y-10789936D02*
X10526134Y-10799460D01*
X10526134Y-10799460D02*
X10507086Y-10808984D01*
X10507086Y-10808984D02*
X10488039Y-10808984D01*
X10488039Y-10808984D02*
X10468991Y-10799460D01*
X10468991Y-10799460D02*
X10459467Y-10789936D01*
X10459467Y-10789936D02*
X10449944Y-10770889D01*
X10449944Y-10770889D02*
X10440420Y-10732793D01*
X10440420Y-10732793D02*
X10440420Y-10685174D01*
X10440420Y-10685174D02*
X10449944Y-10647079D01*
X10449944Y-10647079D02*
X10459467Y-10628031D01*
X10459467Y-10628031D02*
X10468991Y-10618508D01*
X10468991Y-10618508D02*
X10488039Y-10608984D01*
X10640420Y-10808984D02*
X10640420Y-10675650D01*
X10640420Y-10694698D02*
X10649944Y-10685174D01*
X10649944Y-10685174D02*
X10668991Y-10675650D01*
X10668991Y-10675650D02*
X10697563Y-10675650D01*
X10697563Y-10675650D02*
X10716610Y-10685174D01*
X10716610Y-10685174D02*
X10726134Y-10704222D01*
X10726134Y-10704222D02*
X10726134Y-10808984D01*
X10726134Y-10704222D02*
X10735658Y-10685174D01*
X10735658Y-10685174D02*
X10754705Y-10675650D01*
X10754705Y-10675650D02*
X10783277Y-10675650D01*
X10783277Y-10675650D02*
X10802325Y-10685174D01*
X10802325Y-10685174D02*
X10811848Y-10704222D01*
X10811848Y-10704222D02*
X10811848Y-10808984D01*
X10907086Y-10808984D02*
X10907086Y-10675650D01*
X10907086Y-10694698D02*
X10916610Y-10685174D01*
X10916610Y-10685174D02*
X10935658Y-10675650D01*
X10935658Y-10675650D02*
X10964229Y-10675650D01*
X10964229Y-10675650D02*
X10983277Y-10685174D01*
X10983277Y-10685174D02*
X10992801Y-10704222D01*
X10992801Y-10704222D02*
X10992801Y-10808984D01*
X10992801Y-10704222D02*
X11002325Y-10685174D01*
X11002325Y-10685174D02*
X11021372Y-10675650D01*
X11021372Y-10675650D02*
X11049944Y-10675650D01*
X11049944Y-10675650D02*
X11068991Y-10685174D01*
X11068991Y-10685174D02*
X11078515Y-10704222D01*
X11078515Y-10704222D02*
X11078515Y-10808984D01*
X11468991Y-10599460D02*
X11297563Y-10856603D01*
X11726134Y-10608984D02*
X11745182Y-10608984D01*
X11745182Y-10608984D02*
X11764229Y-10618508D01*
X11764229Y-10618508D02*
X11773753Y-10628031D01*
X11773753Y-10628031D02*
X11783277Y-10647079D01*
X11783277Y-10647079D02*
X11792801Y-10685174D01*
X11792801Y-10685174D02*
X11792801Y-10732793D01*
X11792801Y-10732793D02*
X11783277Y-10770889D01*
X11783277Y-10770889D02*
X11773753Y-10789936D01*
X11773753Y-10789936D02*
X11764229Y-10799460D01*
X11764229Y-10799460D02*
X11745182Y-10808984D01*
X11745182Y-10808984D02*
X11726134Y-10808984D01*
X11726134Y-10808984D02*
X11707086Y-10799460D01*
X11707086Y-10799460D02*
X11697563Y-10789936D01*
X11697563Y-10789936D02*
X11688039Y-10770889D01*
X11688039Y-10770889D02*
X11678515Y-10732793D01*
X11678515Y-10732793D02*
X11678515Y-10685174D01*
X11678515Y-10685174D02*
X11688039Y-10647079D01*
X11688039Y-10647079D02*
X11697563Y-10628031D01*
X11697563Y-10628031D02*
X11707086Y-10618508D01*
X11707086Y-10618508D02*
X11726134Y-10608984D01*
X11878515Y-10789936D02*
X11888039Y-10799460D01*
X11888039Y-10799460D02*
X11878515Y-10808984D01*
X11878515Y-10808984D02*
X11868991Y-10799460D01*
X11868991Y-10799460D02*
X11878515Y-10789936D01*
X11878515Y-10789936D02*
X11878515Y-10808984D01*
X12011848Y-10608984D02*
X12030896Y-10608984D01*
X12030896Y-10608984D02*
X12049944Y-10618508D01*
X12049944Y-10618508D02*
X12059467Y-10628031D01*
X12059467Y-10628031D02*
X12068991Y-10647079D01*
X12068991Y-10647079D02*
X12078515Y-10685174D01*
X12078515Y-10685174D02*
X12078515Y-10732793D01*
X12078515Y-10732793D02*
X12068991Y-10770889D01*
X12068991Y-10770889D02*
X12059467Y-10789936D01*
X12059467Y-10789936D02*
X12049944Y-10799460D01*
X12049944Y-10799460D02*
X12030896Y-10808984D01*
X12030896Y-10808984D02*
X12011848Y-10808984D01*
X12011848Y-10808984D02*
X11992801Y-10799460D01*
X11992801Y-10799460D02*
X11983277Y-10789936D01*
X11983277Y-10789936D02*
X11973753Y-10770889D01*
X11973753Y-10770889D02*
X11964229Y-10732793D01*
X11964229Y-10732793D02*
X11964229Y-10685174D01*
X11964229Y-10685174D02*
X11973753Y-10647079D01*
X11973753Y-10647079D02*
X11983277Y-10628031D01*
X11983277Y-10628031D02*
X11992801Y-10618508D01*
X11992801Y-10618508D02*
X12011848Y-10608984D01*
X12268991Y-10808984D02*
X12154706Y-10808984D01*
X12211848Y-10808984D02*
X12211848Y-10608984D01*
X12211848Y-10608984D02*
X12192801Y-10637555D01*
X12192801Y-10637555D02*
X12173753Y-10656603D01*
X12173753Y-10656603D02*
X12154706Y-10666127D01*
X12364229Y-10808984D02*
X12402325Y-10808984D01*
X12402325Y-10808984D02*
X12421372Y-10799460D01*
X12421372Y-10799460D02*
X12430896Y-10789936D01*
X12430896Y-10789936D02*
X12449944Y-10761365D01*
X12449944Y-10761365D02*
X12459467Y-10723270D01*
X12459467Y-10723270D02*
X12459467Y-10647079D01*
X12459467Y-10647079D02*
X12449944Y-10628031D01*
X12449944Y-10628031D02*
X12440420Y-10618508D01*
X12440420Y-10618508D02*
X12421372Y-10608984D01*
X12421372Y-10608984D02*
X12383277Y-10608984D01*
X12383277Y-10608984D02*
X12364229Y-10618508D01*
X12364229Y-10618508D02*
X12354706Y-10628031D01*
X12354706Y-10628031D02*
X12345182Y-10647079D01*
X12345182Y-10647079D02*
X12345182Y-10694698D01*
X12345182Y-10694698D02*
X12354706Y-10713746D01*
X12354706Y-10713746D02*
X12364229Y-10723270D01*
X12364229Y-10723270D02*
X12383277Y-10732793D01*
X12383277Y-10732793D02*
X12421372Y-10732793D01*
X12421372Y-10732793D02*
X12440420Y-10723270D01*
X12440420Y-10723270D02*
X12449944Y-10713746D01*
X12449944Y-10713746D02*
X12459467Y-10694698D01*
X12526134Y-10608984D02*
X12659467Y-10608984D01*
X12659467Y-10608984D02*
X12573753Y-10808984D01*
X12726134Y-10608984D02*
X12726134Y-10647079D01*
X12802325Y-10608984D02*
X12802325Y-10647079D01*
X13097563Y-10885174D02*
X13088039Y-10875650D01*
X13088039Y-10875650D02*
X13068991Y-10847079D01*
X13068991Y-10847079D02*
X13059468Y-10828031D01*
X13059468Y-10828031D02*
X13049944Y-10799460D01*
X13049944Y-10799460D02*
X13040420Y-10751841D01*
X13040420Y-10751841D02*
X13040420Y-10713746D01*
X13040420Y-10713746D02*
X13049944Y-10666127D01*
X13049944Y-10666127D02*
X13059468Y-10637555D01*
X13059468Y-10637555D02*
X13068991Y-10618508D01*
X13068991Y-10618508D02*
X13088039Y-10589936D01*
X13088039Y-10589936D02*
X13097563Y-10580412D01*
X13202325Y-10694698D02*
X13183277Y-10685174D01*
X13183277Y-10685174D02*
X13173753Y-10675650D01*
X13173753Y-10675650D02*
X13164229Y-10656603D01*
X13164229Y-10656603D02*
X13164229Y-10647079D01*
X13164229Y-10647079D02*
X13173753Y-10628031D01*
X13173753Y-10628031D02*
X13183277Y-10618508D01*
X13183277Y-10618508D02*
X13202325Y-10608984D01*
X13202325Y-10608984D02*
X13240420Y-10608984D01*
X13240420Y-10608984D02*
X13259468Y-10618508D01*
X13259468Y-10618508D02*
X13268991Y-10628031D01*
X13268991Y-10628031D02*
X13278515Y-10647079D01*
X13278515Y-10647079D02*
X13278515Y-10656603D01*
X13278515Y-10656603D02*
X13268991Y-10675650D01*
X13268991Y-10675650D02*
X13259468Y-10685174D01*
X13259468Y-10685174D02*
X13240420Y-10694698D01*
X13240420Y-10694698D02*
X13202325Y-10694698D01*
X13202325Y-10694698D02*
X13183277Y-10704222D01*
X13183277Y-10704222D02*
X13173753Y-10713746D01*
X13173753Y-10713746D02*
X13164229Y-10732793D01*
X13164229Y-10732793D02*
X13164229Y-10770889D01*
X13164229Y-10770889D02*
X13173753Y-10789936D01*
X13173753Y-10789936D02*
X13183277Y-10799460D01*
X13183277Y-10799460D02*
X13202325Y-10808984D01*
X13202325Y-10808984D02*
X13240420Y-10808984D01*
X13240420Y-10808984D02*
X13259468Y-10799460D01*
X13259468Y-10799460D02*
X13268991Y-10789936D01*
X13268991Y-10789936D02*
X13278515Y-10770889D01*
X13278515Y-10770889D02*
X13278515Y-10732793D01*
X13278515Y-10732793D02*
X13268991Y-10713746D01*
X13268991Y-10713746D02*
X13259468Y-10704222D01*
X13259468Y-10704222D02*
X13240420Y-10694698D01*
X13516610Y-10808984D02*
X13516610Y-10608984D01*
X13602325Y-10808984D02*
X13602325Y-10704222D01*
X13602325Y-10704222D02*
X13592801Y-10685174D01*
X13592801Y-10685174D02*
X13573753Y-10675650D01*
X13573753Y-10675650D02*
X13545182Y-10675650D01*
X13545182Y-10675650D02*
X13526134Y-10685174D01*
X13526134Y-10685174D02*
X13516610Y-10694698D01*
X13726134Y-10808984D02*
X13707087Y-10799460D01*
X13707087Y-10799460D02*
X13697563Y-10789936D01*
X13697563Y-10789936D02*
X13688039Y-10770889D01*
X13688039Y-10770889D02*
X13688039Y-10713746D01*
X13688039Y-10713746D02*
X13697563Y-10694698D01*
X13697563Y-10694698D02*
X13707087Y-10685174D01*
X13707087Y-10685174D02*
X13726134Y-10675650D01*
X13726134Y-10675650D02*
X13754706Y-10675650D01*
X13754706Y-10675650D02*
X13773753Y-10685174D01*
X13773753Y-10685174D02*
X13783277Y-10694698D01*
X13783277Y-10694698D02*
X13792801Y-10713746D01*
X13792801Y-10713746D02*
X13792801Y-10770889D01*
X13792801Y-10770889D02*
X13783277Y-10789936D01*
X13783277Y-10789936D02*
X13773753Y-10799460D01*
X13773753Y-10799460D02*
X13754706Y-10808984D01*
X13754706Y-10808984D02*
X13726134Y-10808984D01*
X13907087Y-10808984D02*
X13888039Y-10799460D01*
X13888039Y-10799460D02*
X13878515Y-10780412D01*
X13878515Y-10780412D02*
X13878515Y-10608984D01*
X14059468Y-10799460D02*
X14040420Y-10808984D01*
X14040420Y-10808984D02*
X14002325Y-10808984D01*
X14002325Y-10808984D02*
X13983277Y-10799460D01*
X13983277Y-10799460D02*
X13973753Y-10780412D01*
X13973753Y-10780412D02*
X13973753Y-10704222D01*
X13973753Y-10704222D02*
X13983277Y-10685174D01*
X13983277Y-10685174D02*
X14002325Y-10675650D01*
X14002325Y-10675650D02*
X14040420Y-10675650D01*
X14040420Y-10675650D02*
X14059468Y-10685174D01*
X14059468Y-10685174D02*
X14068991Y-10704222D01*
X14068991Y-10704222D02*
X14068991Y-10723270D01*
X14068991Y-10723270D02*
X13973753Y-10742317D01*
X14145182Y-10799460D02*
X14164230Y-10808984D01*
X14164230Y-10808984D02*
X14202325Y-10808984D01*
X14202325Y-10808984D02*
X14221372Y-10799460D01*
X14221372Y-10799460D02*
X14230896Y-10780412D01*
X14230896Y-10780412D02*
X14230896Y-10770889D01*
X14230896Y-10770889D02*
X14221372Y-10751841D01*
X14221372Y-10751841D02*
X14202325Y-10742317D01*
X14202325Y-10742317D02*
X14173753Y-10742317D01*
X14173753Y-10742317D02*
X14154706Y-10732793D01*
X14154706Y-10732793D02*
X14145182Y-10713746D01*
X14145182Y-10713746D02*
X14145182Y-10704222D01*
X14145182Y-10704222D02*
X14154706Y-10685174D01*
X14154706Y-10685174D02*
X14173753Y-10675650D01*
X14173753Y-10675650D02*
X14202325Y-10675650D01*
X14202325Y-10675650D02*
X14221372Y-10685174D01*
X14297563Y-10885174D02*
X14307087Y-10875650D01*
X14307087Y-10875650D02*
X14326134Y-10847079D01*
X14326134Y-10847079D02*
X14335658Y-10828031D01*
X14335658Y-10828031D02*
X14345182Y-10799460D01*
X14345182Y-10799460D02*
X14354706Y-10751841D01*
X14354706Y-10751841D02*
X14354706Y-10713746D01*
X14354706Y-10713746D02*
X14345182Y-10666127D01*
X14345182Y-10666127D02*
X14335658Y-10637555D01*
X14335658Y-10637555D02*
X14326134Y-10618508D01*
X14326134Y-10618508D02*
X14307087Y-10589936D01*
X14307087Y-10589936D02*
X14297563Y-10580412D01*
M02*
