%TF.GenerationSoftware,KiCad,Pcbnew,8.0.5*%
%TF.CreationDate,2024-12-16T08:40:04+01:00*%
%TF.ProjectId,Antenna_switch,416e7465-6e6e-4615-9f73-77697463682e,rev?*%
%TF.SameCoordinates,Original*%
%TF.FileFunction,Legend,Top*%
%TF.FilePolarity,Positive*%
%FSLAX46Y46*%
G04 Gerber Fmt 4.6, Leading zero omitted, Abs format (unit mm)*
G04 Created by KiCad (PCBNEW 8.0.5) date 2024-12-16 08:40:04*
%MOMM*%
%LPD*%
G01*
G04 APERTURE LIST*
%ADD10C,0.150000*%
%ADD11C,0.120000*%
%ADD12C,0.100000*%
G04 APERTURE END LIST*
D10*
X138261905Y-61954819D02*
X138261905Y-60954819D01*
X138833333Y-61954819D02*
X138404762Y-61383390D01*
X138833333Y-60954819D02*
X138261905Y-61526247D01*
X139214286Y-61050057D02*
X139261905Y-61002438D01*
X139261905Y-61002438D02*
X139357143Y-60954819D01*
X139357143Y-60954819D02*
X139595238Y-60954819D01*
X139595238Y-60954819D02*
X139690476Y-61002438D01*
X139690476Y-61002438D02*
X139738095Y-61050057D01*
X139738095Y-61050057D02*
X139785714Y-61145295D01*
X139785714Y-61145295D02*
X139785714Y-61240533D01*
X139785714Y-61240533D02*
X139738095Y-61383390D01*
X139738095Y-61383390D02*
X139166667Y-61954819D01*
X139166667Y-61954819D02*
X139785714Y-61954819D01*
D11*
%TO.C,D3*%
X170910000Y-41350000D02*
X165100000Y-41350000D01*
X170910000Y-45650000D02*
X165100000Y-45650000D01*
X170910000Y-45650000D02*
X170910000Y-41350000D01*
%TO.C,U5*%
D12*
X99750000Y-50750000D02*
X107750000Y-50750000D01*
X107750000Y-44750000D01*
X99750000Y-44750000D01*
X99750000Y-50750000D01*
D11*
%TO.C,K5*%
X150660000Y-91070000D02*
X150660000Y-90270000D01*
X150660000Y-93270000D02*
X150660000Y-92670000D01*
X150660000Y-95370000D02*
X150660000Y-94870000D01*
X150700000Y-85180000D02*
X150700000Y-85680000D01*
X150700000Y-85180000D02*
X157360000Y-85170000D01*
X150700000Y-85680000D02*
X150100000Y-85680000D01*
X150700000Y-87180000D02*
X150100000Y-87180000D01*
X150700000Y-88580000D02*
X150700000Y-87180000D01*
X157360000Y-85170000D02*
X157360000Y-85670000D01*
X157360000Y-87270000D02*
X157360000Y-88670000D01*
X157360000Y-90270000D02*
X157360000Y-91070000D01*
X157360000Y-92670000D02*
X157360000Y-93270000D01*
X157360000Y-94870000D02*
X157360000Y-95370000D01*
X157360000Y-95370000D02*
X150660000Y-95370000D01*
%TO.C,K4*%
X156160000Y-71990000D02*
X156160000Y-71190000D01*
X156160000Y-74190000D02*
X156160000Y-73590000D01*
X156160000Y-76290000D02*
X156160000Y-75790000D01*
X156200000Y-66100000D02*
X156200000Y-66600000D01*
X156200000Y-66100000D02*
X162860000Y-66090000D01*
X156200000Y-66600000D02*
X155600000Y-66600000D01*
X156200000Y-68100000D02*
X155600000Y-68100000D01*
X156200000Y-69500000D02*
X156200000Y-68100000D01*
X162860000Y-66090000D02*
X162860000Y-66590000D01*
X162860000Y-68190000D02*
X162860000Y-69590000D01*
X162860000Y-71190000D02*
X162860000Y-71990000D01*
X162860000Y-73590000D02*
X162860000Y-74190000D01*
X162860000Y-75790000D02*
X162860000Y-76290000D01*
X162860000Y-76290000D02*
X156160000Y-76290000D01*
%TO.C,U4*%
D12*
X99500000Y-59500000D02*
X107500000Y-59500000D01*
X107500000Y-53500000D01*
X99500000Y-53500000D01*
X99500000Y-59500000D01*
D11*
%TO.C,R3*%
X110487500Y-76200000D02*
X110487500Y-78600000D01*
X110487500Y-78600000D02*
X115087500Y-78600000D01*
X115087500Y-76200000D02*
X110487500Y-76200000D01*
X115087500Y-78600000D02*
X115087500Y-76200000D01*
%TO.C,R4*%
X110737500Y-83050000D02*
X110737500Y-85450000D01*
X110737500Y-85450000D02*
X115337500Y-85450000D01*
X115337500Y-83050000D02*
X110737500Y-83050000D01*
X115337500Y-85450000D02*
X115337500Y-83050000D01*
%TO.C,D1*%
X127600000Y-54090000D02*
X127600000Y-59900000D01*
X131900000Y-54090000D02*
X127600000Y-54090000D01*
X131900000Y-54090000D02*
X131900000Y-59900000D01*
%TO.C,U1*%
X170250000Y-62750000D02*
X175250000Y-62750000D01*
X170250000Y-90750000D02*
X170250000Y-62750000D01*
X175250000Y-62750000D02*
X175250000Y-90750000D01*
X175250000Y-90750000D02*
X170250000Y-90750000D01*
%TO.C,U3*%
X100000000Y-61500000D02*
X105000000Y-61500000D01*
X100000000Y-89500000D02*
X100000000Y-61500000D01*
X105000000Y-61500000D02*
X105000000Y-89500000D01*
X105000000Y-89500000D02*
X100000000Y-89500000D01*
%TO.C,R6*%
X118000000Y-48562500D02*
X115600000Y-48562500D01*
X115600000Y-48562500D02*
X115600000Y-53162500D01*
X118000000Y-53162500D02*
X118000000Y-48562500D01*
X115600000Y-53162500D02*
X118000000Y-53162500D01*
%TO.C,K2*%
X135660000Y-68300000D02*
X135660000Y-67500000D01*
X135660000Y-70500000D02*
X135660000Y-69900000D01*
X135660000Y-72600000D02*
X135660000Y-72100000D01*
X135700000Y-62410000D02*
X135700000Y-62910000D01*
X135700000Y-62410000D02*
X142360000Y-62400000D01*
X135700000Y-62910000D02*
X135100000Y-62910000D01*
X135700000Y-64410000D02*
X135100000Y-64410000D01*
X135700000Y-65810000D02*
X135700000Y-64410000D01*
X142360000Y-62400000D02*
X142360000Y-62900000D01*
X142360000Y-64500000D02*
X142360000Y-65900000D01*
X142360000Y-67500000D02*
X142360000Y-68300000D01*
X142360000Y-69900000D02*
X142360000Y-70500000D01*
X142360000Y-72100000D02*
X142360000Y-72600000D01*
X142360000Y-72600000D02*
X135660000Y-72600000D01*
%TO.C,D5*%
X160600000Y-79090000D02*
X160600000Y-84900000D01*
X164900000Y-79090000D02*
X160600000Y-79090000D01*
X164900000Y-79090000D02*
X164900000Y-84900000D01*
%TO.C,Q5*%
X142640000Y-86312500D02*
X142640000Y-85662500D01*
X142640000Y-86312500D02*
X142640000Y-86962500D01*
X145760000Y-86312500D02*
X145760000Y-85662500D01*
X145760000Y-86312500D02*
X145760000Y-86962500D01*
X142690000Y-87475000D02*
X142360000Y-87715000D01*
X142360000Y-87235000D01*
X142690000Y-87475000D01*
G36*
X142690000Y-87475000D02*
G01*
X142360000Y-87715000D01*
X142360000Y-87235000D01*
X142690000Y-87475000D01*
G37*
%TO.C,K3*%
X155160000Y-52550000D02*
X155160000Y-51750000D01*
X155160000Y-54750000D02*
X155160000Y-54150000D01*
X155160000Y-56850000D02*
X155160000Y-56350000D01*
X155200000Y-46660000D02*
X155200000Y-47160000D01*
X155200000Y-46660000D02*
X161860000Y-46650000D01*
X155200000Y-47160000D02*
X154600000Y-47160000D01*
X155200000Y-48660000D02*
X154600000Y-48660000D01*
X155200000Y-50060000D02*
X155200000Y-48660000D01*
X161860000Y-46650000D02*
X161860000Y-47150000D01*
X161860000Y-48750000D02*
X161860000Y-50150000D01*
X161860000Y-51750000D02*
X161860000Y-52550000D01*
X161860000Y-54150000D02*
X161860000Y-54750000D01*
X161860000Y-56350000D02*
X161860000Y-56850000D01*
X161860000Y-56850000D02*
X155160000Y-56850000D01*
%TO.C,Q4*%
X133940000Y-82250000D02*
X133940000Y-81600000D01*
X133940000Y-82250000D02*
X133940000Y-82900000D01*
X137060000Y-82250000D02*
X137060000Y-81600000D01*
X137060000Y-82250000D02*
X137060000Y-82900000D01*
X133990000Y-83412500D02*
X133660000Y-83652500D01*
X133660000Y-83172500D01*
X133990000Y-83412500D01*
G36*
X133990000Y-83412500D02*
G01*
X133660000Y-83652500D01*
X133660000Y-83172500D01*
X133990000Y-83412500D01*
G37*
%TO.C,R1*%
X107950000Y-61300000D02*
X107950000Y-63700000D01*
X107950000Y-63700000D02*
X112550000Y-63700000D01*
X112550000Y-61300000D02*
X107950000Y-61300000D01*
X112550000Y-63700000D02*
X112550000Y-61300000D01*
%TO.C,Q2*%
X121640000Y-69312500D02*
X121640000Y-68662500D01*
X121640000Y-69312500D02*
X121640000Y-69962500D01*
X124760000Y-69312500D02*
X124760000Y-68662500D01*
X124760000Y-69312500D02*
X124760000Y-69962500D01*
X121690000Y-70475000D02*
X121360000Y-70715000D01*
X121360000Y-70235000D01*
X121690000Y-70475000D01*
G36*
X121690000Y-70475000D02*
G01*
X121360000Y-70715000D01*
X121360000Y-70235000D01*
X121690000Y-70475000D01*
G37*
%TO.C,R2*%
X110700000Y-70400000D02*
X110700000Y-72800000D01*
X110700000Y-72800000D02*
X115300000Y-72800000D01*
X115300000Y-70400000D02*
X110700000Y-70400000D01*
X115300000Y-72800000D02*
X115300000Y-70400000D01*
%TO.C,R5*%
X118200000Y-88550000D02*
X118200000Y-90950000D01*
X118200000Y-90950000D02*
X122800000Y-90950000D01*
X122800000Y-88550000D02*
X118200000Y-88550000D01*
X122800000Y-90950000D02*
X122800000Y-88550000D01*
%TO.C,K1*%
X115400000Y-55660000D02*
X115900000Y-55660000D01*
X115400000Y-62360000D02*
X115400000Y-55660000D01*
X115900000Y-62360000D02*
X115400000Y-62360000D01*
X117500000Y-55660000D02*
X118100000Y-55660000D01*
X118100000Y-62360000D02*
X117500000Y-62360000D01*
X119700000Y-55660000D02*
X120500000Y-55660000D01*
X120500000Y-62360000D02*
X119700000Y-62360000D01*
X122190000Y-55700000D02*
X123590000Y-55700000D01*
X123500000Y-62360000D02*
X122100000Y-62360000D01*
X123590000Y-55700000D02*
X123590000Y-55100000D01*
X125090000Y-55700000D02*
X125090000Y-55100000D01*
X125590000Y-55700000D02*
X125090000Y-55700000D01*
X125590000Y-55700000D02*
X125600000Y-62360000D01*
X125600000Y-62360000D02*
X125100000Y-62360000D01*
%TO.C,Q3*%
X126140000Y-77562500D02*
X126140000Y-76912500D01*
X126140000Y-77562500D02*
X126140000Y-78212500D01*
X129260000Y-77562500D02*
X129260000Y-76912500D01*
X129260000Y-77562500D02*
X129260000Y-78212500D01*
X126190000Y-78725000D02*
X125860000Y-78965000D01*
X125860000Y-78485000D01*
X126190000Y-78725000D01*
G36*
X126190000Y-78725000D02*
G01*
X125860000Y-78965000D01*
X125860000Y-78485000D01*
X126190000Y-78725000D01*
G37*
%TO.C,U2*%
X123000000Y-45000000D02*
X151000000Y-45000000D01*
X123000000Y-50000000D02*
X123000000Y-45000000D01*
X151000000Y-45000000D02*
X151000000Y-50000000D01*
X151000000Y-50000000D02*
X123000000Y-50000000D01*
%TO.C,Q1*%
X111937500Y-65440000D02*
X111287500Y-65440000D01*
X111937500Y-65440000D02*
X112587500Y-65440000D01*
X111937500Y-68560000D02*
X111287500Y-68560000D01*
X111937500Y-68560000D02*
X112587500Y-68560000D01*
X110775000Y-65490000D02*
X110535000Y-65160000D01*
X111015000Y-65160000D01*
X110775000Y-65490000D01*
G36*
X110775000Y-65490000D02*
G01*
X110535000Y-65160000D01*
X111015000Y-65160000D01*
X110775000Y-65490000D01*
G37*
%TO.C,D4*%
X155340000Y-58600000D02*
X155340000Y-62900000D01*
X155340000Y-58600000D02*
X161150000Y-58600000D01*
X155340000Y-62900000D02*
X161150000Y-62900000D01*
%TO.C,D2*%
X135590000Y-55350000D02*
X135590000Y-59650000D01*
X135590000Y-55350000D02*
X141400000Y-55350000D01*
X135590000Y-59650000D02*
X141400000Y-59650000D01*
%TD*%
M02*
