%TF.GenerationSoftware,KiCad,Pcbnew,8.0.5*%
%TF.CreationDate,2024-12-19T09:49:27+01:00*%
%TF.ProjectId,Antenna_switch,416e7465-6e6e-4615-9f73-77697463682e,rev?*%
%TF.SameCoordinates,Original*%
%TF.FileFunction,Copper,L1,Top*%
%TF.FilePolarity,Positive*%
%FSLAX46Y46*%
G04 Gerber Fmt 4.6, Leading zero omitted, Abs format (unit mm)*
G04 Created by KiCad (PCBNEW 8.0.5) date 2024-12-19 09:49:27*
%MOMM*%
%LPD*%
G01*
G04 APERTURE LIST*
G04 Aperture macros list*
%AMRoundRect*
0 Rectangle with rounded corners*
0 $1 Rounding radius*
0 $2 $3 $4 $5 $6 $7 $8 $9 X,Y pos of 4 corners*
0 Add a 4 corners polygon primitive as box body*
4,1,4,$2,$3,$4,$5,$6,$7,$8,$9,$2,$3,0*
0 Add four circle primitives for the rounded corners*
1,1,$1+$1,$2,$3*
1,1,$1+$1,$4,$5*
1,1,$1+$1,$6,$7*
1,1,$1+$1,$8,$9*
0 Add four rect primitives between the rounded corners*
20,1,$1+$1,$2,$3,$4,$5,0*
20,1,$1+$1,$4,$5,$6,$7,0*
20,1,$1+$1,$6,$7,$8,$9,0*
20,1,$1+$1,$8,$9,$2,$3,0*%
G04 Aperture macros list end*
%ADD10C,0.300000*%
%TA.AperFunction,NonConductor*%
%ADD11C,0.300000*%
%TD*%
%ADD12C,0.150000*%
%TA.AperFunction,NonConductor*%
%ADD13C,0.150000*%
%TD*%
%ADD14C,0.100000*%
%TA.AperFunction,NonConductor*%
%ADD15C,0.100000*%
%TD*%
%TA.AperFunction,SMDPad,CuDef*%
%ADD16RoundRect,0.250000X1.000000X0.900000X-1.000000X0.900000X-1.000000X-0.900000X1.000000X-0.900000X0*%
%TD*%
%TA.AperFunction,SMDPad,CuDef*%
%ADD17RoundRect,1.250000X2.250000X-1.250000X2.250000X1.250000X-2.250000X1.250000X-2.250000X-1.250000X0*%
%TD*%
%TA.AperFunction,SMDPad,CuDef*%
%ADD18R,1.800000X0.800000*%
%TD*%
%TA.AperFunction,SMDPad,CuDef*%
%ADD19RoundRect,0.250000X0.312500X0.625000X-0.312500X0.625000X-0.312500X-0.625000X0.312500X-0.625000X0*%
%TD*%
%TA.AperFunction,SMDPad,CuDef*%
%ADD20RoundRect,0.250000X-0.312500X-0.625000X0.312500X-0.625000X0.312500X0.625000X-0.312500X0.625000X0*%
%TD*%
%TA.AperFunction,SMDPad,CuDef*%
%ADD21RoundRect,0.250000X-0.900000X1.000000X-0.900000X-1.000000X0.900000X-1.000000X0.900000X1.000000X0*%
%TD*%
%TA.AperFunction,SMDPad,CuDef*%
%ADD22R,5.000000X3.000000*%
%TD*%
%TA.AperFunction,SMDPad,CuDef*%
%ADD23RoundRect,0.250000X0.625000X-0.312500X0.625000X0.312500X-0.625000X0.312500X-0.625000X-0.312500X0*%
%TD*%
%TA.AperFunction,SMDPad,CuDef*%
%ADD24RoundRect,0.150000X0.150000X-0.587500X0.150000X0.587500X-0.150000X0.587500X-0.150000X-0.587500X0*%
%TD*%
%TA.AperFunction,SMDPad,CuDef*%
%ADD25R,0.800000X1.800000*%
%TD*%
%TA.AperFunction,SMDPad,CuDef*%
%ADD26R,3.000000X5.000000*%
%TD*%
%TA.AperFunction,SMDPad,CuDef*%
%ADD27RoundRect,0.150000X-0.587500X-0.150000X0.587500X-0.150000X0.587500X0.150000X-0.587500X0.150000X0*%
%TD*%
%TA.AperFunction,SMDPad,CuDef*%
%ADD28RoundRect,0.250000X-1.000000X-0.900000X1.000000X-0.900000X1.000000X0.900000X-1.000000X0.900000X0*%
%TD*%
%TA.AperFunction,ViaPad*%
%ADD29C,1.500000*%
%TD*%
%TA.AperFunction,Conductor*%
%ADD30C,0.500000*%
%TD*%
%TA.AperFunction,Conductor*%
%ADD31C,0.400000*%
%TD*%
%TA.AperFunction,Conductor*%
%ADD32C,0.200000*%
%TD*%
%TA.AperFunction,Conductor*%
%ADD33C,0.800000*%
%TD*%
G04 APERTURE END LIST*
D10*
D11*
X97800828Y-67909774D02*
X97800828Y-68766917D01*
X97800828Y-68338346D02*
X96300828Y-68338346D01*
X96300828Y-68338346D02*
X96515114Y-68481203D01*
X96515114Y-68481203D02*
X96657971Y-68624060D01*
X96657971Y-68624060D02*
X96729400Y-68766917D01*
X96300828Y-66624061D02*
X96300828Y-66909775D01*
X96300828Y-66909775D02*
X96372257Y-67052632D01*
X96372257Y-67052632D02*
X96443685Y-67124061D01*
X96443685Y-67124061D02*
X96657971Y-67266918D01*
X96657971Y-67266918D02*
X96943685Y-67338346D01*
X96943685Y-67338346D02*
X97515114Y-67338346D01*
X97515114Y-67338346D02*
X97657971Y-67266918D01*
X97657971Y-67266918D02*
X97729400Y-67195489D01*
X97729400Y-67195489D02*
X97800828Y-67052632D01*
X97800828Y-67052632D02*
X97800828Y-66766918D01*
X97800828Y-66766918D02*
X97729400Y-66624061D01*
X97729400Y-66624061D02*
X97657971Y-66552632D01*
X97657971Y-66552632D02*
X97515114Y-66481203D01*
X97515114Y-66481203D02*
X97157971Y-66481203D01*
X97157971Y-66481203D02*
X97015114Y-66552632D01*
X97015114Y-66552632D02*
X96943685Y-66624061D01*
X96943685Y-66624061D02*
X96872257Y-66766918D01*
X96872257Y-66766918D02*
X96872257Y-67052632D01*
X96872257Y-67052632D02*
X96943685Y-67195489D01*
X96943685Y-67195489D02*
X97015114Y-67266918D01*
X97015114Y-67266918D02*
X97157971Y-67338346D01*
D10*
D11*
X97550828Y-63159774D02*
X97550828Y-64016917D01*
X97550828Y-63588346D02*
X96050828Y-63588346D01*
X96050828Y-63588346D02*
X96265114Y-63731203D01*
X96265114Y-63731203D02*
X96407971Y-63874060D01*
X96407971Y-63874060D02*
X96479400Y-64016917D01*
X96693685Y-62302632D02*
X96622257Y-62445489D01*
X96622257Y-62445489D02*
X96550828Y-62516918D01*
X96550828Y-62516918D02*
X96407971Y-62588346D01*
X96407971Y-62588346D02*
X96336542Y-62588346D01*
X96336542Y-62588346D02*
X96193685Y-62516918D01*
X96193685Y-62516918D02*
X96122257Y-62445489D01*
X96122257Y-62445489D02*
X96050828Y-62302632D01*
X96050828Y-62302632D02*
X96050828Y-62016918D01*
X96050828Y-62016918D02*
X96122257Y-61874061D01*
X96122257Y-61874061D02*
X96193685Y-61802632D01*
X96193685Y-61802632D02*
X96336542Y-61731203D01*
X96336542Y-61731203D02*
X96407971Y-61731203D01*
X96407971Y-61731203D02*
X96550828Y-61802632D01*
X96550828Y-61802632D02*
X96622257Y-61874061D01*
X96622257Y-61874061D02*
X96693685Y-62016918D01*
X96693685Y-62016918D02*
X96693685Y-62302632D01*
X96693685Y-62302632D02*
X96765114Y-62445489D01*
X96765114Y-62445489D02*
X96836542Y-62516918D01*
X96836542Y-62516918D02*
X96979400Y-62588346D01*
X96979400Y-62588346D02*
X97265114Y-62588346D01*
X97265114Y-62588346D02*
X97407971Y-62516918D01*
X97407971Y-62516918D02*
X97479400Y-62445489D01*
X97479400Y-62445489D02*
X97550828Y-62302632D01*
X97550828Y-62302632D02*
X97550828Y-62016918D01*
X97550828Y-62016918D02*
X97479400Y-61874061D01*
X97479400Y-61874061D02*
X97407971Y-61802632D01*
X97407971Y-61802632D02*
X97265114Y-61731203D01*
X97265114Y-61731203D02*
X96979400Y-61731203D01*
X96979400Y-61731203D02*
X96836542Y-61802632D01*
X96836542Y-61802632D02*
X96765114Y-61874061D01*
X96765114Y-61874061D02*
X96693685Y-62016918D01*
D10*
D11*
X97550828Y-72909774D02*
X97550828Y-73766917D01*
X97550828Y-73338346D02*
X96050828Y-73338346D01*
X96050828Y-73338346D02*
X96265114Y-73481203D01*
X96265114Y-73481203D02*
X96407971Y-73624060D01*
X96407971Y-73624060D02*
X96479400Y-73766917D01*
X97550828Y-71481203D02*
X97550828Y-72338346D01*
X97550828Y-71909775D02*
X96050828Y-71909775D01*
X96050828Y-71909775D02*
X96265114Y-72052632D01*
X96265114Y-72052632D02*
X96407971Y-72195489D01*
X96407971Y-72195489D02*
X96479400Y-72338346D01*
D10*
D11*
X97550828Y-83159774D02*
X97550828Y-84016917D01*
X97550828Y-83588346D02*
X96050828Y-83588346D01*
X96050828Y-83588346D02*
X96265114Y-83731203D01*
X96265114Y-83731203D02*
X96407971Y-83874060D01*
X96407971Y-83874060D02*
X96479400Y-84016917D01*
X96050828Y-82659775D02*
X96050828Y-81731203D01*
X96050828Y-81731203D02*
X96622257Y-82231203D01*
X96622257Y-82231203D02*
X96622257Y-82016918D01*
X96622257Y-82016918D02*
X96693685Y-81874061D01*
X96693685Y-81874061D02*
X96765114Y-81802632D01*
X96765114Y-81802632D02*
X96907971Y-81731203D01*
X96907971Y-81731203D02*
X97265114Y-81731203D01*
X97265114Y-81731203D02*
X97407971Y-81802632D01*
X97407971Y-81802632D02*
X97479400Y-81874061D01*
X97479400Y-81874061D02*
X97550828Y-82016918D01*
X97550828Y-82016918D02*
X97550828Y-82445489D01*
X97550828Y-82445489D02*
X97479400Y-82588346D01*
X97479400Y-82588346D02*
X97407971Y-82659775D01*
D10*
D11*
X183622257Y-88266917D02*
X183622257Y-87552632D01*
X184050828Y-88409774D02*
X182550828Y-87909774D01*
X182550828Y-87909774D02*
X184050828Y-87409774D01*
X184050828Y-86909775D02*
X182550828Y-86909775D01*
X182550828Y-86909775D02*
X184050828Y-86052632D01*
X184050828Y-86052632D02*
X182550828Y-86052632D01*
X182550828Y-85552631D02*
X182550828Y-84695489D01*
X184050828Y-85124060D02*
X182550828Y-85124060D01*
X182550828Y-84338346D02*
X182550828Y-83409774D01*
X182550828Y-83409774D02*
X183122257Y-83909774D01*
X183122257Y-83909774D02*
X183122257Y-83695489D01*
X183122257Y-83695489D02*
X183193685Y-83552632D01*
X183193685Y-83552632D02*
X183265114Y-83481203D01*
X183265114Y-83481203D02*
X183407971Y-83409774D01*
X183407971Y-83409774D02*
X183765114Y-83409774D01*
X183765114Y-83409774D02*
X183907971Y-83481203D01*
X183907971Y-83481203D02*
X183979400Y-83552632D01*
X183979400Y-83552632D02*
X184050828Y-83695489D01*
X184050828Y-83695489D02*
X184050828Y-84124060D01*
X184050828Y-84124060D02*
X183979400Y-84266917D01*
X183979400Y-84266917D02*
X183907971Y-84338346D01*
D10*
D11*
X97970600Y-54354510D02*
X97970600Y-55497368D01*
X97399171Y-54925939D02*
X98542028Y-54925939D01*
X98899171Y-56925939D02*
X98899171Y-56211653D01*
X98899171Y-56211653D02*
X98184885Y-56140225D01*
X98184885Y-56140225D02*
X98256314Y-56211653D01*
X98256314Y-56211653D02*
X98327742Y-56354511D01*
X98327742Y-56354511D02*
X98327742Y-56711653D01*
X98327742Y-56711653D02*
X98256314Y-56854511D01*
X98256314Y-56854511D02*
X98184885Y-56925939D01*
X98184885Y-56925939D02*
X98042028Y-56997368D01*
X98042028Y-56997368D02*
X97684885Y-56997368D01*
X97684885Y-56997368D02*
X97542028Y-56925939D01*
X97542028Y-56925939D02*
X97470600Y-56854511D01*
X97470600Y-56854511D02*
X97399171Y-56711653D01*
X97399171Y-56711653D02*
X97399171Y-56354511D01*
X97399171Y-56354511D02*
X97470600Y-56211653D01*
X97470600Y-56211653D02*
X97542028Y-56140225D01*
X98899171Y-57425939D02*
X97399171Y-57925939D01*
X97399171Y-57925939D02*
X98899171Y-58425939D01*
D10*
D11*
X97877742Y-47090225D02*
X97949171Y-46947368D01*
X97949171Y-46947368D02*
X97949171Y-46733082D01*
X97949171Y-46733082D02*
X97877742Y-46518796D01*
X97877742Y-46518796D02*
X97734885Y-46375939D01*
X97734885Y-46375939D02*
X97592028Y-46304510D01*
X97592028Y-46304510D02*
X97306314Y-46233082D01*
X97306314Y-46233082D02*
X97092028Y-46233082D01*
X97092028Y-46233082D02*
X96806314Y-46304510D01*
X96806314Y-46304510D02*
X96663457Y-46375939D01*
X96663457Y-46375939D02*
X96520600Y-46518796D01*
X96520600Y-46518796D02*
X96449171Y-46733082D01*
X96449171Y-46733082D02*
X96449171Y-46875939D01*
X96449171Y-46875939D02*
X96520600Y-47090225D01*
X96520600Y-47090225D02*
X96592028Y-47161653D01*
X96592028Y-47161653D02*
X97092028Y-47161653D01*
X97092028Y-47161653D02*
X97092028Y-46875939D01*
X96449171Y-47804510D02*
X97949171Y-47804510D01*
X97949171Y-47804510D02*
X96449171Y-48661653D01*
X96449171Y-48661653D02*
X97949171Y-48661653D01*
X96449171Y-49375939D02*
X97949171Y-49375939D01*
X97949171Y-49375939D02*
X97949171Y-49733082D01*
X97949171Y-49733082D02*
X97877742Y-49947368D01*
X97877742Y-49947368D02*
X97734885Y-50090225D01*
X97734885Y-50090225D02*
X97592028Y-50161654D01*
X97592028Y-50161654D02*
X97306314Y-50233082D01*
X97306314Y-50233082D02*
X97092028Y-50233082D01*
X97092028Y-50233082D02*
X96806314Y-50161654D01*
X96806314Y-50161654D02*
X96663457Y-50090225D01*
X96663457Y-50090225D02*
X96520600Y-49947368D01*
X96520600Y-49947368D02*
X96449171Y-49733082D01*
X96449171Y-49733082D02*
X96449171Y-49375939D01*
D10*
D11*
X123233082Y-41479400D02*
X123447368Y-41550828D01*
X123447368Y-41550828D02*
X123804510Y-41550828D01*
X123804510Y-41550828D02*
X123947368Y-41479400D01*
X123947368Y-41479400D02*
X124018796Y-41407971D01*
X124018796Y-41407971D02*
X124090225Y-41265114D01*
X124090225Y-41265114D02*
X124090225Y-41122257D01*
X124090225Y-41122257D02*
X124018796Y-40979400D01*
X124018796Y-40979400D02*
X123947368Y-40907971D01*
X123947368Y-40907971D02*
X123804510Y-40836542D01*
X123804510Y-40836542D02*
X123518796Y-40765114D01*
X123518796Y-40765114D02*
X123375939Y-40693685D01*
X123375939Y-40693685D02*
X123304510Y-40622257D01*
X123304510Y-40622257D02*
X123233082Y-40479400D01*
X123233082Y-40479400D02*
X123233082Y-40336542D01*
X123233082Y-40336542D02*
X123304510Y-40193685D01*
X123304510Y-40193685D02*
X123375939Y-40122257D01*
X123375939Y-40122257D02*
X123518796Y-40050828D01*
X123518796Y-40050828D02*
X123875939Y-40050828D01*
X123875939Y-40050828D02*
X124090225Y-40122257D01*
X124733081Y-41550828D02*
X124733081Y-40050828D01*
X124733081Y-40050828D02*
X125090224Y-40050828D01*
X125090224Y-40050828D02*
X125304510Y-40122257D01*
X125304510Y-40122257D02*
X125447367Y-40265114D01*
X125447367Y-40265114D02*
X125518796Y-40407971D01*
X125518796Y-40407971D02*
X125590224Y-40693685D01*
X125590224Y-40693685D02*
X125590224Y-40907971D01*
X125590224Y-40907971D02*
X125518796Y-41193685D01*
X125518796Y-41193685D02*
X125447367Y-41336542D01*
X125447367Y-41336542D02*
X125304510Y-41479400D01*
X125304510Y-41479400D02*
X125090224Y-41550828D01*
X125090224Y-41550828D02*
X124733081Y-41550828D01*
X127090224Y-41550828D02*
X126590224Y-40836542D01*
X126233081Y-41550828D02*
X126233081Y-40050828D01*
X126233081Y-40050828D02*
X126804510Y-40050828D01*
X126804510Y-40050828D02*
X126947367Y-40122257D01*
X126947367Y-40122257D02*
X127018796Y-40193685D01*
X127018796Y-40193685D02*
X127090224Y-40336542D01*
X127090224Y-40336542D02*
X127090224Y-40550828D01*
X127090224Y-40550828D02*
X127018796Y-40693685D01*
X127018796Y-40693685D02*
X126947367Y-40765114D01*
X126947367Y-40765114D02*
X126804510Y-40836542D01*
X126804510Y-40836542D02*
X126233081Y-40836542D01*
D10*
D11*
X177372257Y-67016917D02*
X177372257Y-66302632D01*
X177800828Y-67159774D02*
X176300828Y-66659774D01*
X176300828Y-66659774D02*
X177800828Y-66159774D01*
X177800828Y-65659775D02*
X176300828Y-65659775D01*
X176300828Y-65659775D02*
X177800828Y-64802632D01*
X177800828Y-64802632D02*
X176300828Y-64802632D01*
X176300828Y-64302631D02*
X176300828Y-63445489D01*
X177800828Y-63874060D02*
X176300828Y-63874060D01*
X177800828Y-62159774D02*
X177800828Y-63016917D01*
X177800828Y-62588346D02*
X176300828Y-62588346D01*
X176300828Y-62588346D02*
X176515114Y-62731203D01*
X176515114Y-62731203D02*
X176657971Y-62874060D01*
X176657971Y-62874060D02*
X176729400Y-63016917D01*
D10*
D11*
X183122257Y-78016917D02*
X183122257Y-77302632D01*
X183550828Y-78159774D02*
X182050828Y-77659774D01*
X182050828Y-77659774D02*
X183550828Y-77159774D01*
X183550828Y-76659775D02*
X182050828Y-76659775D01*
X182050828Y-76659775D02*
X183550828Y-75802632D01*
X183550828Y-75802632D02*
X182050828Y-75802632D01*
X182050828Y-75302631D02*
X182050828Y-74445489D01*
X183550828Y-74874060D02*
X182050828Y-74874060D01*
X182193685Y-74016917D02*
X182122257Y-73945489D01*
X182122257Y-73945489D02*
X182050828Y-73802632D01*
X182050828Y-73802632D02*
X182050828Y-73445489D01*
X182050828Y-73445489D02*
X182122257Y-73302632D01*
X182122257Y-73302632D02*
X182193685Y-73231203D01*
X182193685Y-73231203D02*
X182336542Y-73159774D01*
X182336542Y-73159774D02*
X182479400Y-73159774D01*
X182479400Y-73159774D02*
X182693685Y-73231203D01*
X182693685Y-73231203D02*
X183550828Y-74088346D01*
X183550828Y-74088346D02*
X183550828Y-73159774D01*
D10*
D11*
X132411653Y-41050828D02*
X131911653Y-40336542D01*
X131554510Y-41050828D02*
X131554510Y-39550828D01*
X131554510Y-39550828D02*
X132125939Y-39550828D01*
X132125939Y-39550828D02*
X132268796Y-39622257D01*
X132268796Y-39622257D02*
X132340225Y-39693685D01*
X132340225Y-39693685D02*
X132411653Y-39836542D01*
X132411653Y-39836542D02*
X132411653Y-40050828D01*
X132411653Y-40050828D02*
X132340225Y-40193685D01*
X132340225Y-40193685D02*
X132268796Y-40265114D01*
X132268796Y-40265114D02*
X132125939Y-40336542D01*
X132125939Y-40336542D02*
X131554510Y-40336542D01*
X132911653Y-39550828D02*
X133911653Y-41050828D01*
X133911653Y-39550828D02*
X132911653Y-41050828D01*
X136340224Y-41050828D02*
X135625938Y-41050828D01*
X135625938Y-41050828D02*
X135625938Y-39550828D01*
X136840224Y-41050828D02*
X136840224Y-39550828D01*
X136840224Y-39550828D02*
X137697367Y-41050828D01*
X137697367Y-41050828D02*
X137697367Y-39550828D01*
X138340225Y-40622257D02*
X139054511Y-40622257D01*
X138197368Y-41050828D02*
X138697368Y-39550828D01*
X138697368Y-39550828D02*
X139197368Y-41050828D01*
X141911653Y-40622257D02*
X142625939Y-40622257D01*
X141768796Y-41050828D02*
X142268796Y-39550828D01*
X142268796Y-39550828D02*
X142768796Y-41050828D01*
X143268795Y-40050828D02*
X143268795Y-41050828D01*
X143268795Y-40193685D02*
X143340224Y-40122257D01*
X143340224Y-40122257D02*
X143483081Y-40050828D01*
X143483081Y-40050828D02*
X143697367Y-40050828D01*
X143697367Y-40050828D02*
X143840224Y-40122257D01*
X143840224Y-40122257D02*
X143911653Y-40265114D01*
X143911653Y-40265114D02*
X143911653Y-41050828D01*
X144411653Y-40050828D02*
X144983081Y-40050828D01*
X144625938Y-39550828D02*
X144625938Y-40836542D01*
X144625938Y-40836542D02*
X144697367Y-40979400D01*
X144697367Y-40979400D02*
X144840224Y-41050828D01*
X144840224Y-41050828D02*
X144983081Y-41050828D01*
X147340224Y-41050828D02*
X146625938Y-41050828D01*
X146625938Y-41050828D02*
X146625938Y-39550828D01*
X147840224Y-41050828D02*
X147840224Y-39550828D01*
X147840224Y-39550828D02*
X148697367Y-41050828D01*
X148697367Y-41050828D02*
X148697367Y-39550828D01*
X149340225Y-40622257D02*
X150054511Y-40622257D01*
X149197368Y-41050828D02*
X149697368Y-39550828D01*
X149697368Y-39550828D02*
X150197368Y-41050828D01*
D10*
D11*
X97550828Y-77909774D02*
X97550828Y-78766917D01*
X97550828Y-78338346D02*
X96050828Y-78338346D01*
X96050828Y-78338346D02*
X96265114Y-78481203D01*
X96265114Y-78481203D02*
X96407971Y-78624060D01*
X96407971Y-78624060D02*
X96479400Y-78766917D01*
X96193685Y-77338346D02*
X96122257Y-77266918D01*
X96122257Y-77266918D02*
X96050828Y-77124061D01*
X96050828Y-77124061D02*
X96050828Y-76766918D01*
X96050828Y-76766918D02*
X96122257Y-76624061D01*
X96122257Y-76624061D02*
X96193685Y-76552632D01*
X96193685Y-76552632D02*
X96336542Y-76481203D01*
X96336542Y-76481203D02*
X96479400Y-76481203D01*
X96479400Y-76481203D02*
X96693685Y-76552632D01*
X96693685Y-76552632D02*
X97550828Y-77409775D01*
X97550828Y-77409775D02*
X97550828Y-76481203D01*
D12*
D13*
X166511905Y-46954819D02*
X166511905Y-45954819D01*
X166511905Y-45954819D02*
X166750000Y-45954819D01*
X166750000Y-45954819D02*
X166892857Y-46002438D01*
X166892857Y-46002438D02*
X166988095Y-46097676D01*
X166988095Y-46097676D02*
X167035714Y-46192914D01*
X167035714Y-46192914D02*
X167083333Y-46383390D01*
X167083333Y-46383390D02*
X167083333Y-46526247D01*
X167083333Y-46526247D02*
X167035714Y-46716723D01*
X167035714Y-46716723D02*
X166988095Y-46811961D01*
X166988095Y-46811961D02*
X166892857Y-46907200D01*
X166892857Y-46907200D02*
X166750000Y-46954819D01*
X166750000Y-46954819D02*
X166511905Y-46954819D01*
X167416667Y-45954819D02*
X168035714Y-45954819D01*
X168035714Y-45954819D02*
X167702381Y-46335771D01*
X167702381Y-46335771D02*
X167845238Y-46335771D01*
X167845238Y-46335771D02*
X167940476Y-46383390D01*
X167940476Y-46383390D02*
X167988095Y-46431009D01*
X167988095Y-46431009D02*
X168035714Y-46526247D01*
X168035714Y-46526247D02*
X168035714Y-46764342D01*
X168035714Y-46764342D02*
X167988095Y-46859580D01*
X167988095Y-46859580D02*
X167940476Y-46907200D01*
X167940476Y-46907200D02*
X167845238Y-46954819D01*
X167845238Y-46954819D02*
X167559524Y-46954819D01*
X167559524Y-46954819D02*
X167464286Y-46907200D01*
X167464286Y-46907200D02*
X167416667Y-46859580D01*
D14*
D15*
X102207419Y-48511904D02*
X103016942Y-48511904D01*
X103016942Y-48511904D02*
X103112180Y-48464285D01*
X103112180Y-48464285D02*
X103159800Y-48416666D01*
X103159800Y-48416666D02*
X103207419Y-48321428D01*
X103207419Y-48321428D02*
X103207419Y-48130952D01*
X103207419Y-48130952D02*
X103159800Y-48035714D01*
X103159800Y-48035714D02*
X103112180Y-47988095D01*
X103112180Y-47988095D02*
X103016942Y-47940476D01*
X103016942Y-47940476D02*
X102207419Y-47940476D01*
X102207419Y-46988095D02*
X102207419Y-47464285D01*
X102207419Y-47464285D02*
X102683609Y-47511904D01*
X102683609Y-47511904D02*
X102635990Y-47464285D01*
X102635990Y-47464285D02*
X102588371Y-47369047D01*
X102588371Y-47369047D02*
X102588371Y-47130952D01*
X102588371Y-47130952D02*
X102635990Y-47035714D01*
X102635990Y-47035714D02*
X102683609Y-46988095D01*
X102683609Y-46988095D02*
X102778847Y-46940476D01*
X102778847Y-46940476D02*
X103016942Y-46940476D01*
X103016942Y-46940476D02*
X103112180Y-46988095D01*
X103112180Y-46988095D02*
X103159800Y-47035714D01*
X103159800Y-47035714D02*
X103207419Y-47130952D01*
X103207419Y-47130952D02*
X103207419Y-47369047D01*
X103207419Y-47369047D02*
X103159800Y-47464285D01*
X103159800Y-47464285D02*
X103112180Y-47511904D01*
D12*
D13*
X154761905Y-84204819D02*
X154761905Y-83204819D01*
X155333333Y-84204819D02*
X154904762Y-83633390D01*
X155333333Y-83204819D02*
X154761905Y-83776247D01*
X156238095Y-83204819D02*
X155761905Y-83204819D01*
X155761905Y-83204819D02*
X155714286Y-83681009D01*
X155714286Y-83681009D02*
X155761905Y-83633390D01*
X155761905Y-83633390D02*
X155857143Y-83585771D01*
X155857143Y-83585771D02*
X156095238Y-83585771D01*
X156095238Y-83585771D02*
X156190476Y-83633390D01*
X156190476Y-83633390D02*
X156238095Y-83681009D01*
X156238095Y-83681009D02*
X156285714Y-83776247D01*
X156285714Y-83776247D02*
X156285714Y-84014342D01*
X156285714Y-84014342D02*
X156238095Y-84109580D01*
X156238095Y-84109580D02*
X156190476Y-84157200D01*
X156190476Y-84157200D02*
X156095238Y-84204819D01*
X156095238Y-84204819D02*
X155857143Y-84204819D01*
X155857143Y-84204819D02*
X155761905Y-84157200D01*
X155761905Y-84157200D02*
X155714286Y-84109580D01*
D12*
D13*
X160511905Y-65454819D02*
X160511905Y-64454819D01*
X161083333Y-65454819D02*
X160654762Y-64883390D01*
X161083333Y-64454819D02*
X160511905Y-65026247D01*
X161940476Y-64788152D02*
X161940476Y-65454819D01*
X161702381Y-64407200D02*
X161464286Y-65121485D01*
X161464286Y-65121485D02*
X162083333Y-65121485D01*
D14*
D15*
X101957419Y-57261904D02*
X102766942Y-57261904D01*
X102766942Y-57261904D02*
X102862180Y-57214285D01*
X102862180Y-57214285D02*
X102909800Y-57166666D01*
X102909800Y-57166666D02*
X102957419Y-57071428D01*
X102957419Y-57071428D02*
X102957419Y-56880952D01*
X102957419Y-56880952D02*
X102909800Y-56785714D01*
X102909800Y-56785714D02*
X102862180Y-56738095D01*
X102862180Y-56738095D02*
X102766942Y-56690476D01*
X102766942Y-56690476D02*
X101957419Y-56690476D01*
X102290752Y-55785714D02*
X102957419Y-55785714D01*
X101909800Y-56023809D02*
X102624085Y-56261904D01*
X102624085Y-56261904D02*
X102624085Y-55642857D01*
D12*
D13*
X118333333Y-77604819D02*
X118000000Y-77128628D01*
X117761905Y-77604819D02*
X117761905Y-76604819D01*
X117761905Y-76604819D02*
X118142857Y-76604819D01*
X118142857Y-76604819D02*
X118238095Y-76652438D01*
X118238095Y-76652438D02*
X118285714Y-76700057D01*
X118285714Y-76700057D02*
X118333333Y-76795295D01*
X118333333Y-76795295D02*
X118333333Y-76938152D01*
X118333333Y-76938152D02*
X118285714Y-77033390D01*
X118285714Y-77033390D02*
X118238095Y-77081009D01*
X118238095Y-77081009D02*
X118142857Y-77128628D01*
X118142857Y-77128628D02*
X117761905Y-77128628D01*
X118666667Y-76604819D02*
X119285714Y-76604819D01*
X119285714Y-76604819D02*
X118952381Y-76985771D01*
X118952381Y-76985771D02*
X119095238Y-76985771D01*
X119095238Y-76985771D02*
X119190476Y-77033390D01*
X119190476Y-77033390D02*
X119238095Y-77081009D01*
X119238095Y-77081009D02*
X119285714Y-77176247D01*
X119285714Y-77176247D02*
X119285714Y-77414342D01*
X119285714Y-77414342D02*
X119238095Y-77509580D01*
X119238095Y-77509580D02*
X119190476Y-77557200D01*
X119190476Y-77557200D02*
X119095238Y-77604819D01*
X119095238Y-77604819D02*
X118809524Y-77604819D01*
X118809524Y-77604819D02*
X118714286Y-77557200D01*
X118714286Y-77557200D02*
X118666667Y-77509580D01*
D12*
D13*
X116833333Y-85854819D02*
X116500000Y-85378628D01*
X116261905Y-85854819D02*
X116261905Y-84854819D01*
X116261905Y-84854819D02*
X116642857Y-84854819D01*
X116642857Y-84854819D02*
X116738095Y-84902438D01*
X116738095Y-84902438D02*
X116785714Y-84950057D01*
X116785714Y-84950057D02*
X116833333Y-85045295D01*
X116833333Y-85045295D02*
X116833333Y-85188152D01*
X116833333Y-85188152D02*
X116785714Y-85283390D01*
X116785714Y-85283390D02*
X116738095Y-85331009D01*
X116738095Y-85331009D02*
X116642857Y-85378628D01*
X116642857Y-85378628D02*
X116261905Y-85378628D01*
X117690476Y-85188152D02*
X117690476Y-85854819D01*
X117452381Y-84807200D02*
X117214286Y-85521485D01*
X117214286Y-85521485D02*
X117833333Y-85521485D01*
D12*
D13*
X133204819Y-58488094D02*
X132204819Y-58488094D01*
X132204819Y-58488094D02*
X132204819Y-58249999D01*
X132204819Y-58249999D02*
X132252438Y-58107142D01*
X132252438Y-58107142D02*
X132347676Y-58011904D01*
X132347676Y-58011904D02*
X132442914Y-57964285D01*
X132442914Y-57964285D02*
X132633390Y-57916666D01*
X132633390Y-57916666D02*
X132776247Y-57916666D01*
X132776247Y-57916666D02*
X132966723Y-57964285D01*
X132966723Y-57964285D02*
X133061961Y-58011904D01*
X133061961Y-58011904D02*
X133157200Y-58107142D01*
X133157200Y-58107142D02*
X133204819Y-58249999D01*
X133204819Y-58249999D02*
X133204819Y-58488094D01*
X133204819Y-56964285D02*
X133204819Y-57535713D01*
X133204819Y-57249999D02*
X132204819Y-57249999D01*
X132204819Y-57249999D02*
X132347676Y-57345237D01*
X132347676Y-57345237D02*
X132442914Y-57440475D01*
X132442914Y-57440475D02*
X132490533Y-57535713D01*
D12*
D13*
X167954819Y-77261904D02*
X168764342Y-77261904D01*
X168764342Y-77261904D02*
X168859580Y-77214285D01*
X168859580Y-77214285D02*
X168907200Y-77166666D01*
X168907200Y-77166666D02*
X168954819Y-77071428D01*
X168954819Y-77071428D02*
X168954819Y-76880952D01*
X168954819Y-76880952D02*
X168907200Y-76785714D01*
X168907200Y-76785714D02*
X168859580Y-76738095D01*
X168859580Y-76738095D02*
X168764342Y-76690476D01*
X168764342Y-76690476D02*
X167954819Y-76690476D01*
X168954819Y-75690476D02*
X168954819Y-76261904D01*
X168954819Y-75976190D02*
X167954819Y-75976190D01*
X167954819Y-75976190D02*
X168097676Y-76071428D01*
X168097676Y-76071428D02*
X168192914Y-76166666D01*
X168192914Y-76166666D02*
X168240533Y-76261904D01*
D12*
D13*
X105954819Y-91011904D02*
X106764342Y-91011904D01*
X106764342Y-91011904D02*
X106859580Y-90964285D01*
X106859580Y-90964285D02*
X106907200Y-90916666D01*
X106907200Y-90916666D02*
X106954819Y-90821428D01*
X106954819Y-90821428D02*
X106954819Y-90630952D01*
X106954819Y-90630952D02*
X106907200Y-90535714D01*
X106907200Y-90535714D02*
X106859580Y-90488095D01*
X106859580Y-90488095D02*
X106764342Y-90440476D01*
X106764342Y-90440476D02*
X105954819Y-90440476D01*
X105954819Y-90059523D02*
X105954819Y-89440476D01*
X105954819Y-89440476D02*
X106335771Y-89773809D01*
X106335771Y-89773809D02*
X106335771Y-89630952D01*
X106335771Y-89630952D02*
X106383390Y-89535714D01*
X106383390Y-89535714D02*
X106431009Y-89488095D01*
X106431009Y-89488095D02*
X106526247Y-89440476D01*
X106526247Y-89440476D02*
X106764342Y-89440476D01*
X106764342Y-89440476D02*
X106859580Y-89488095D01*
X106859580Y-89488095D02*
X106907200Y-89535714D01*
X106907200Y-89535714D02*
X106954819Y-89630952D01*
X106954819Y-89630952D02*
X106954819Y-89916666D01*
X106954819Y-89916666D02*
X106907200Y-90011904D01*
X106907200Y-90011904D02*
X106859580Y-90059523D01*
D12*
D13*
X113633333Y-54379819D02*
X113300000Y-53903628D01*
X113061905Y-54379819D02*
X113061905Y-53379819D01*
X113061905Y-53379819D02*
X113442857Y-53379819D01*
X113442857Y-53379819D02*
X113538095Y-53427438D01*
X113538095Y-53427438D02*
X113585714Y-53475057D01*
X113585714Y-53475057D02*
X113633333Y-53570295D01*
X113633333Y-53570295D02*
X113633333Y-53713152D01*
X113633333Y-53713152D02*
X113585714Y-53808390D01*
X113585714Y-53808390D02*
X113538095Y-53856009D01*
X113538095Y-53856009D02*
X113442857Y-53903628D01*
X113442857Y-53903628D02*
X113061905Y-53903628D01*
X114490476Y-53379819D02*
X114300000Y-53379819D01*
X114300000Y-53379819D02*
X114204762Y-53427438D01*
X114204762Y-53427438D02*
X114157143Y-53475057D01*
X114157143Y-53475057D02*
X114061905Y-53617914D01*
X114061905Y-53617914D02*
X114014286Y-53808390D01*
X114014286Y-53808390D02*
X114014286Y-54189342D01*
X114014286Y-54189342D02*
X114061905Y-54284580D01*
X114061905Y-54284580D02*
X114109524Y-54332200D01*
X114109524Y-54332200D02*
X114204762Y-54379819D01*
X114204762Y-54379819D02*
X114395238Y-54379819D01*
X114395238Y-54379819D02*
X114490476Y-54332200D01*
X114490476Y-54332200D02*
X114538095Y-54284580D01*
X114538095Y-54284580D02*
X114585714Y-54189342D01*
X114585714Y-54189342D02*
X114585714Y-53951247D01*
X114585714Y-53951247D02*
X114538095Y-53856009D01*
X114538095Y-53856009D02*
X114490476Y-53808390D01*
X114490476Y-53808390D02*
X114395238Y-53760771D01*
X114395238Y-53760771D02*
X114204762Y-53760771D01*
X114204762Y-53760771D02*
X114109524Y-53808390D01*
X114109524Y-53808390D02*
X114061905Y-53856009D01*
X114061905Y-53856009D02*
X114014286Y-53951247D01*
D12*
D13*
X166704819Y-80238094D02*
X165704819Y-80238094D01*
X165704819Y-80238094D02*
X165704819Y-79999999D01*
X165704819Y-79999999D02*
X165752438Y-79857142D01*
X165752438Y-79857142D02*
X165847676Y-79761904D01*
X165847676Y-79761904D02*
X165942914Y-79714285D01*
X165942914Y-79714285D02*
X166133390Y-79666666D01*
X166133390Y-79666666D02*
X166276247Y-79666666D01*
X166276247Y-79666666D02*
X166466723Y-79714285D01*
X166466723Y-79714285D02*
X166561961Y-79761904D01*
X166561961Y-79761904D02*
X166657200Y-79857142D01*
X166657200Y-79857142D02*
X166704819Y-79999999D01*
X166704819Y-79999999D02*
X166704819Y-80238094D01*
X165704819Y-78761904D02*
X165704819Y-79238094D01*
X165704819Y-79238094D02*
X166181009Y-79285713D01*
X166181009Y-79285713D02*
X166133390Y-79238094D01*
X166133390Y-79238094D02*
X166085771Y-79142856D01*
X166085771Y-79142856D02*
X166085771Y-78904761D01*
X166085771Y-78904761D02*
X166133390Y-78809523D01*
X166133390Y-78809523D02*
X166181009Y-78761904D01*
X166181009Y-78761904D02*
X166276247Y-78714285D01*
X166276247Y-78714285D02*
X166514342Y-78714285D01*
X166514342Y-78714285D02*
X166609580Y-78761904D01*
X166609580Y-78761904D02*
X166657200Y-78809523D01*
X166657200Y-78809523D02*
X166704819Y-78904761D01*
X166704819Y-78904761D02*
X166704819Y-79142856D01*
X166704819Y-79142856D02*
X166657200Y-79238094D01*
X166657200Y-79238094D02*
X166609580Y-79285713D01*
D12*
D13*
X141550057Y-84095238D02*
X141502438Y-84190476D01*
X141502438Y-84190476D02*
X141407200Y-84285714D01*
X141407200Y-84285714D02*
X141264342Y-84428571D01*
X141264342Y-84428571D02*
X141216723Y-84523809D01*
X141216723Y-84523809D02*
X141216723Y-84619047D01*
X141454819Y-84571428D02*
X141407200Y-84666666D01*
X141407200Y-84666666D02*
X141311961Y-84761904D01*
X141311961Y-84761904D02*
X141121485Y-84809523D01*
X141121485Y-84809523D02*
X140788152Y-84809523D01*
X140788152Y-84809523D02*
X140597676Y-84761904D01*
X140597676Y-84761904D02*
X140502438Y-84666666D01*
X140502438Y-84666666D02*
X140454819Y-84571428D01*
X140454819Y-84571428D02*
X140454819Y-84380952D01*
X140454819Y-84380952D02*
X140502438Y-84285714D01*
X140502438Y-84285714D02*
X140597676Y-84190476D01*
X140597676Y-84190476D02*
X140788152Y-84142857D01*
X140788152Y-84142857D02*
X141121485Y-84142857D01*
X141121485Y-84142857D02*
X141311961Y-84190476D01*
X141311961Y-84190476D02*
X141407200Y-84285714D01*
X141407200Y-84285714D02*
X141454819Y-84380952D01*
X141454819Y-84380952D02*
X141454819Y-84571428D01*
X140454819Y-83238095D02*
X140454819Y-83714285D01*
X140454819Y-83714285D02*
X140931009Y-83761904D01*
X140931009Y-83761904D02*
X140883390Y-83714285D01*
X140883390Y-83714285D02*
X140835771Y-83619047D01*
X140835771Y-83619047D02*
X140835771Y-83380952D01*
X140835771Y-83380952D02*
X140883390Y-83285714D01*
X140883390Y-83285714D02*
X140931009Y-83238095D01*
X140931009Y-83238095D02*
X141026247Y-83190476D01*
X141026247Y-83190476D02*
X141264342Y-83190476D01*
X141264342Y-83190476D02*
X141359580Y-83238095D01*
X141359580Y-83238095D02*
X141407200Y-83285714D01*
X141407200Y-83285714D02*
X141454819Y-83380952D01*
X141454819Y-83380952D02*
X141454819Y-83619047D01*
X141454819Y-83619047D02*
X141407200Y-83714285D01*
X141407200Y-83714285D02*
X141359580Y-83761904D01*
D12*
D13*
X159011905Y-45704819D02*
X159011905Y-44704819D01*
X159583333Y-45704819D02*
X159154762Y-45133390D01*
X159583333Y-44704819D02*
X159011905Y-45276247D01*
X159916667Y-44704819D02*
X160535714Y-44704819D01*
X160535714Y-44704819D02*
X160202381Y-45085771D01*
X160202381Y-45085771D02*
X160345238Y-45085771D01*
X160345238Y-45085771D02*
X160440476Y-45133390D01*
X160440476Y-45133390D02*
X160488095Y-45181009D01*
X160488095Y-45181009D02*
X160535714Y-45276247D01*
X160535714Y-45276247D02*
X160535714Y-45514342D01*
X160535714Y-45514342D02*
X160488095Y-45609580D01*
X160488095Y-45609580D02*
X160440476Y-45657200D01*
X160440476Y-45657200D02*
X160345238Y-45704819D01*
X160345238Y-45704819D02*
X160059524Y-45704819D01*
X160059524Y-45704819D02*
X159964286Y-45657200D01*
X159964286Y-45657200D02*
X159916667Y-45609580D01*
D12*
D13*
X133050057Y-80845238D02*
X133002438Y-80940476D01*
X133002438Y-80940476D02*
X132907200Y-81035714D01*
X132907200Y-81035714D02*
X132764342Y-81178571D01*
X132764342Y-81178571D02*
X132716723Y-81273809D01*
X132716723Y-81273809D02*
X132716723Y-81369047D01*
X132954819Y-81321428D02*
X132907200Y-81416666D01*
X132907200Y-81416666D02*
X132811961Y-81511904D01*
X132811961Y-81511904D02*
X132621485Y-81559523D01*
X132621485Y-81559523D02*
X132288152Y-81559523D01*
X132288152Y-81559523D02*
X132097676Y-81511904D01*
X132097676Y-81511904D02*
X132002438Y-81416666D01*
X132002438Y-81416666D02*
X131954819Y-81321428D01*
X131954819Y-81321428D02*
X131954819Y-81130952D01*
X131954819Y-81130952D02*
X132002438Y-81035714D01*
X132002438Y-81035714D02*
X132097676Y-80940476D01*
X132097676Y-80940476D02*
X132288152Y-80892857D01*
X132288152Y-80892857D02*
X132621485Y-80892857D01*
X132621485Y-80892857D02*
X132811961Y-80940476D01*
X132811961Y-80940476D02*
X132907200Y-81035714D01*
X132907200Y-81035714D02*
X132954819Y-81130952D01*
X132954819Y-81130952D02*
X132954819Y-81321428D01*
X132288152Y-80035714D02*
X132954819Y-80035714D01*
X131907200Y-80273809D02*
X132621485Y-80511904D01*
X132621485Y-80511904D02*
X132621485Y-79892857D01*
D12*
D13*
X110083333Y-61049819D02*
X109750000Y-60573628D01*
X109511905Y-61049819D02*
X109511905Y-60049819D01*
X109511905Y-60049819D02*
X109892857Y-60049819D01*
X109892857Y-60049819D02*
X109988095Y-60097438D01*
X109988095Y-60097438D02*
X110035714Y-60145057D01*
X110035714Y-60145057D02*
X110083333Y-60240295D01*
X110083333Y-60240295D02*
X110083333Y-60383152D01*
X110083333Y-60383152D02*
X110035714Y-60478390D01*
X110035714Y-60478390D02*
X109988095Y-60526009D01*
X109988095Y-60526009D02*
X109892857Y-60573628D01*
X109892857Y-60573628D02*
X109511905Y-60573628D01*
X111035714Y-61049819D02*
X110464286Y-61049819D01*
X110750000Y-61049819D02*
X110750000Y-60049819D01*
X110750000Y-60049819D02*
X110654762Y-60192676D01*
X110654762Y-60192676D02*
X110559524Y-60287914D01*
X110559524Y-60287914D02*
X110464286Y-60335533D01*
D12*
D13*
X121300057Y-66845238D02*
X121252438Y-66940476D01*
X121252438Y-66940476D02*
X121157200Y-67035714D01*
X121157200Y-67035714D02*
X121014342Y-67178571D01*
X121014342Y-67178571D02*
X120966723Y-67273809D01*
X120966723Y-67273809D02*
X120966723Y-67369047D01*
X121204819Y-67321428D02*
X121157200Y-67416666D01*
X121157200Y-67416666D02*
X121061961Y-67511904D01*
X121061961Y-67511904D02*
X120871485Y-67559523D01*
X120871485Y-67559523D02*
X120538152Y-67559523D01*
X120538152Y-67559523D02*
X120347676Y-67511904D01*
X120347676Y-67511904D02*
X120252438Y-67416666D01*
X120252438Y-67416666D02*
X120204819Y-67321428D01*
X120204819Y-67321428D02*
X120204819Y-67130952D01*
X120204819Y-67130952D02*
X120252438Y-67035714D01*
X120252438Y-67035714D02*
X120347676Y-66940476D01*
X120347676Y-66940476D02*
X120538152Y-66892857D01*
X120538152Y-66892857D02*
X120871485Y-66892857D01*
X120871485Y-66892857D02*
X121061961Y-66940476D01*
X121061961Y-66940476D02*
X121157200Y-67035714D01*
X121157200Y-67035714D02*
X121204819Y-67130952D01*
X121204819Y-67130952D02*
X121204819Y-67321428D01*
X120300057Y-66511904D02*
X120252438Y-66464285D01*
X120252438Y-66464285D02*
X120204819Y-66369047D01*
X120204819Y-66369047D02*
X120204819Y-66130952D01*
X120204819Y-66130952D02*
X120252438Y-66035714D01*
X120252438Y-66035714D02*
X120300057Y-65988095D01*
X120300057Y-65988095D02*
X120395295Y-65940476D01*
X120395295Y-65940476D02*
X120490533Y-65940476D01*
X120490533Y-65940476D02*
X120633390Y-65988095D01*
X120633390Y-65988095D02*
X121204819Y-66559523D01*
X121204819Y-66559523D02*
X121204819Y-65940476D01*
D12*
D13*
X116795833Y-72554819D02*
X116462500Y-72078628D01*
X116224405Y-72554819D02*
X116224405Y-71554819D01*
X116224405Y-71554819D02*
X116605357Y-71554819D01*
X116605357Y-71554819D02*
X116700595Y-71602438D01*
X116700595Y-71602438D02*
X116748214Y-71650057D01*
X116748214Y-71650057D02*
X116795833Y-71745295D01*
X116795833Y-71745295D02*
X116795833Y-71888152D01*
X116795833Y-71888152D02*
X116748214Y-71983390D01*
X116748214Y-71983390D02*
X116700595Y-72031009D01*
X116700595Y-72031009D02*
X116605357Y-72078628D01*
X116605357Y-72078628D02*
X116224405Y-72078628D01*
X117176786Y-71650057D02*
X117224405Y-71602438D01*
X117224405Y-71602438D02*
X117319643Y-71554819D01*
X117319643Y-71554819D02*
X117557738Y-71554819D01*
X117557738Y-71554819D02*
X117652976Y-71602438D01*
X117652976Y-71602438D02*
X117700595Y-71650057D01*
X117700595Y-71650057D02*
X117748214Y-71745295D01*
X117748214Y-71745295D02*
X117748214Y-71840533D01*
X117748214Y-71840533D02*
X117700595Y-71983390D01*
X117700595Y-71983390D02*
X117129167Y-72554819D01*
X117129167Y-72554819D02*
X117748214Y-72554819D01*
D12*
D13*
X120583333Y-87954819D02*
X120250000Y-87478628D01*
X120011905Y-87954819D02*
X120011905Y-86954819D01*
X120011905Y-86954819D02*
X120392857Y-86954819D01*
X120392857Y-86954819D02*
X120488095Y-87002438D01*
X120488095Y-87002438D02*
X120535714Y-87050057D01*
X120535714Y-87050057D02*
X120583333Y-87145295D01*
X120583333Y-87145295D02*
X120583333Y-87288152D01*
X120583333Y-87288152D02*
X120535714Y-87383390D01*
X120535714Y-87383390D02*
X120488095Y-87431009D01*
X120488095Y-87431009D02*
X120392857Y-87478628D01*
X120392857Y-87478628D02*
X120011905Y-87478628D01*
X121488095Y-86954819D02*
X121011905Y-86954819D01*
X121011905Y-86954819D02*
X120964286Y-87431009D01*
X120964286Y-87431009D02*
X121011905Y-87383390D01*
X121011905Y-87383390D02*
X121107143Y-87335771D01*
X121107143Y-87335771D02*
X121345238Y-87335771D01*
X121345238Y-87335771D02*
X121440476Y-87383390D01*
X121440476Y-87383390D02*
X121488095Y-87431009D01*
X121488095Y-87431009D02*
X121535714Y-87526247D01*
X121535714Y-87526247D02*
X121535714Y-87764342D01*
X121535714Y-87764342D02*
X121488095Y-87859580D01*
X121488095Y-87859580D02*
X121440476Y-87907200D01*
X121440476Y-87907200D02*
X121345238Y-87954819D01*
X121345238Y-87954819D02*
X121107143Y-87954819D01*
X121107143Y-87954819D02*
X121011905Y-87907200D01*
X121011905Y-87907200D02*
X120964286Y-87859580D01*
D12*
D13*
X111704819Y-57988094D02*
X110704819Y-57988094D01*
X111704819Y-57416666D02*
X111133390Y-57845237D01*
X110704819Y-57416666D02*
X111276247Y-57988094D01*
X111704819Y-56464285D02*
X111704819Y-57035713D01*
X111704819Y-56749999D02*
X110704819Y-56749999D01*
X110704819Y-56749999D02*
X110847676Y-56845237D01*
X110847676Y-56845237D02*
X110942914Y-56940475D01*
X110942914Y-56940475D02*
X110990533Y-57035713D01*
D12*
D13*
X125300057Y-76845238D02*
X125252438Y-76940476D01*
X125252438Y-76940476D02*
X125157200Y-77035714D01*
X125157200Y-77035714D02*
X125014342Y-77178571D01*
X125014342Y-77178571D02*
X124966723Y-77273809D01*
X124966723Y-77273809D02*
X124966723Y-77369047D01*
X125204819Y-77321428D02*
X125157200Y-77416666D01*
X125157200Y-77416666D02*
X125061961Y-77511904D01*
X125061961Y-77511904D02*
X124871485Y-77559523D01*
X124871485Y-77559523D02*
X124538152Y-77559523D01*
X124538152Y-77559523D02*
X124347676Y-77511904D01*
X124347676Y-77511904D02*
X124252438Y-77416666D01*
X124252438Y-77416666D02*
X124204819Y-77321428D01*
X124204819Y-77321428D02*
X124204819Y-77130952D01*
X124204819Y-77130952D02*
X124252438Y-77035714D01*
X124252438Y-77035714D02*
X124347676Y-76940476D01*
X124347676Y-76940476D02*
X124538152Y-76892857D01*
X124538152Y-76892857D02*
X124871485Y-76892857D01*
X124871485Y-76892857D02*
X125061961Y-76940476D01*
X125061961Y-76940476D02*
X125157200Y-77035714D01*
X125157200Y-77035714D02*
X125204819Y-77130952D01*
X125204819Y-77130952D02*
X125204819Y-77321428D01*
X124204819Y-76559523D02*
X124204819Y-75940476D01*
X124204819Y-75940476D02*
X124585771Y-76273809D01*
X124585771Y-76273809D02*
X124585771Y-76130952D01*
X124585771Y-76130952D02*
X124633390Y-76035714D01*
X124633390Y-76035714D02*
X124681009Y-75988095D01*
X124681009Y-75988095D02*
X124776247Y-75940476D01*
X124776247Y-75940476D02*
X125014342Y-75940476D01*
X125014342Y-75940476D02*
X125109580Y-75988095D01*
X125109580Y-75988095D02*
X125157200Y-76035714D01*
X125157200Y-76035714D02*
X125204819Y-76130952D01*
X125204819Y-76130952D02*
X125204819Y-76416666D01*
X125204819Y-76416666D02*
X125157200Y-76511904D01*
X125157200Y-76511904D02*
X125109580Y-76559523D01*
D12*
D13*
X135488095Y-42704819D02*
X135488095Y-43514342D01*
X135488095Y-43514342D02*
X135535714Y-43609580D01*
X135535714Y-43609580D02*
X135583333Y-43657200D01*
X135583333Y-43657200D02*
X135678571Y-43704819D01*
X135678571Y-43704819D02*
X135869047Y-43704819D01*
X135869047Y-43704819D02*
X135964285Y-43657200D01*
X135964285Y-43657200D02*
X136011904Y-43609580D01*
X136011904Y-43609580D02*
X136059523Y-43514342D01*
X136059523Y-43514342D02*
X136059523Y-42704819D01*
X136488095Y-42800057D02*
X136535714Y-42752438D01*
X136535714Y-42752438D02*
X136630952Y-42704819D01*
X136630952Y-42704819D02*
X136869047Y-42704819D01*
X136869047Y-42704819D02*
X136964285Y-42752438D01*
X136964285Y-42752438D02*
X137011904Y-42800057D01*
X137011904Y-42800057D02*
X137059523Y-42895295D01*
X137059523Y-42895295D02*
X137059523Y-42990533D01*
X137059523Y-42990533D02*
X137011904Y-43133390D01*
X137011904Y-43133390D02*
X136440476Y-43704819D01*
X136440476Y-43704819D02*
X137059523Y-43704819D01*
D12*
D13*
X108304761Y-66750057D02*
X108209523Y-66702438D01*
X108209523Y-66702438D02*
X108114285Y-66607200D01*
X108114285Y-66607200D02*
X107971428Y-66464342D01*
X107971428Y-66464342D02*
X107876190Y-66416723D01*
X107876190Y-66416723D02*
X107780952Y-66416723D01*
X107828571Y-66654819D02*
X107733333Y-66607200D01*
X107733333Y-66607200D02*
X107638095Y-66511961D01*
X107638095Y-66511961D02*
X107590476Y-66321485D01*
X107590476Y-66321485D02*
X107590476Y-65988152D01*
X107590476Y-65988152D02*
X107638095Y-65797676D01*
X107638095Y-65797676D02*
X107733333Y-65702438D01*
X107733333Y-65702438D02*
X107828571Y-65654819D01*
X107828571Y-65654819D02*
X108019047Y-65654819D01*
X108019047Y-65654819D02*
X108114285Y-65702438D01*
X108114285Y-65702438D02*
X108209523Y-65797676D01*
X108209523Y-65797676D02*
X108257142Y-65988152D01*
X108257142Y-65988152D02*
X108257142Y-66321485D01*
X108257142Y-66321485D02*
X108209523Y-66511961D01*
X108209523Y-66511961D02*
X108114285Y-66607200D01*
X108114285Y-66607200D02*
X108019047Y-66654819D01*
X108019047Y-66654819D02*
X107828571Y-66654819D01*
X109209523Y-66654819D02*
X108638095Y-66654819D01*
X108923809Y-66654819D02*
X108923809Y-65654819D01*
X108923809Y-65654819D02*
X108828571Y-65797676D01*
X108828571Y-65797676D02*
X108733333Y-65892914D01*
X108733333Y-65892914D02*
X108638095Y-65940533D01*
D12*
D13*
X163261905Y-59704819D02*
X163261905Y-58704819D01*
X163261905Y-58704819D02*
X163500000Y-58704819D01*
X163500000Y-58704819D02*
X163642857Y-58752438D01*
X163642857Y-58752438D02*
X163738095Y-58847676D01*
X163738095Y-58847676D02*
X163785714Y-58942914D01*
X163785714Y-58942914D02*
X163833333Y-59133390D01*
X163833333Y-59133390D02*
X163833333Y-59276247D01*
X163833333Y-59276247D02*
X163785714Y-59466723D01*
X163785714Y-59466723D02*
X163738095Y-59561961D01*
X163738095Y-59561961D02*
X163642857Y-59657200D01*
X163642857Y-59657200D02*
X163500000Y-59704819D01*
X163500000Y-59704819D02*
X163261905Y-59704819D01*
X164690476Y-59038152D02*
X164690476Y-59704819D01*
X164452381Y-58657200D02*
X164214286Y-59371485D01*
X164214286Y-59371485D02*
X164833333Y-59371485D01*
D12*
D13*
X140511905Y-53954819D02*
X140511905Y-52954819D01*
X140511905Y-52954819D02*
X140750000Y-52954819D01*
X140750000Y-52954819D02*
X140892857Y-53002438D01*
X140892857Y-53002438D02*
X140988095Y-53097676D01*
X140988095Y-53097676D02*
X141035714Y-53192914D01*
X141035714Y-53192914D02*
X141083333Y-53383390D01*
X141083333Y-53383390D02*
X141083333Y-53526247D01*
X141083333Y-53526247D02*
X141035714Y-53716723D01*
X141035714Y-53716723D02*
X140988095Y-53811961D01*
X140988095Y-53811961D02*
X140892857Y-53907200D01*
X140892857Y-53907200D02*
X140750000Y-53954819D01*
X140750000Y-53954819D02*
X140511905Y-53954819D01*
X141464286Y-53050057D02*
X141511905Y-53002438D01*
X141511905Y-53002438D02*
X141607143Y-52954819D01*
X141607143Y-52954819D02*
X141845238Y-52954819D01*
X141845238Y-52954819D02*
X141940476Y-53002438D01*
X141940476Y-53002438D02*
X141988095Y-53050057D01*
X141988095Y-53050057D02*
X142035714Y-53145295D01*
X142035714Y-53145295D02*
X142035714Y-53240533D01*
X142035714Y-53240533D02*
X141988095Y-53383390D01*
X141988095Y-53383390D02*
X141416667Y-53954819D01*
X141416667Y-53954819D02*
X142035714Y-53954819D01*
D16*
%TO.P,D3,1,K*%
%TO.N,+5V*%
X169400000Y-43500000D03*
%TO.P,D3,2,A*%
%TO.N,Net-(D3-A)*%
X165100000Y-43500000D03*
%TD*%
D17*
%TO.P,U5,1*%
%TO.N,GND*%
X103750000Y-47750000D03*
%TD*%
D18*
%TO.P,K5,1*%
%TO.N,+5V*%
X150500000Y-86470000D03*
%TO.P,K5,2*%
%TO.N,unconnected-(K5-Pad2)*%
X150500000Y-89670000D03*
%TO.P,K5,3*%
%TO.N,unconnected-(K5-Pad3)*%
X150500000Y-91870000D03*
%TO.P,K5,4*%
%TO.N,unconnected-(K5-Pad4)*%
X150500000Y-94070000D03*
%TO.P,K5,5*%
%TO.N,Net-(K2-Pad6)*%
X157500000Y-94070000D03*
%TO.P,K5,6*%
%TO.N,Net-(K5-Pad6)*%
X157500000Y-91870000D03*
%TO.P,K5,7*%
%TO.N,GND*%
X157500000Y-89670000D03*
%TO.P,K5,8*%
%TO.N,Net-(D5-A)*%
X157500000Y-86470000D03*
%TD*%
%TO.P,K4,1*%
%TO.N,+5V*%
X156000000Y-67390000D03*
%TO.P,K4,2*%
%TO.N,unconnected-(K4-Pad2)*%
X156000000Y-70590000D03*
%TO.P,K4,3*%
%TO.N,unconnected-(K4-Pad3)*%
X156000000Y-72790000D03*
%TO.P,K4,4*%
%TO.N,unconnected-(K4-Pad4)*%
X156000000Y-74990000D03*
%TO.P,K4,5*%
%TO.N,Net-(K2-Pad6)*%
X163000000Y-74990000D03*
%TO.P,K4,6*%
%TO.N,Net-(K4-Pad6)*%
X163000000Y-72790000D03*
%TO.P,K4,7*%
%TO.N,GND*%
X163000000Y-70590000D03*
%TO.P,K4,8*%
%TO.N,Net-(D4-A)*%
X163000000Y-67390000D03*
%TD*%
D17*
%TO.P,U4,1*%
%TO.N,+5V*%
X103500000Y-56500000D03*
%TD*%
D19*
%TO.P,R3,1*%
%TO.N,Net-(Q3-B)*%
X114250000Y-77400000D03*
%TO.P,R3,2*%
%TO.N,Net-(R3-Pad2)*%
X111325000Y-77400000D03*
%TD*%
D20*
%TO.P,R4,1*%
%TO.N,Net-(R4-Pad1)*%
X111575000Y-84250000D03*
%TO.P,R4,2*%
%TO.N,Net-(Q4-B)*%
X114500000Y-84250000D03*
%TD*%
D21*
%TO.P,D1,1,K*%
%TO.N,+5V*%
X129750000Y-55600000D03*
%TO.P,D1,2,A*%
%TO.N,Net-(D1-A)*%
X129750000Y-59900000D03*
%TD*%
D22*
%TO.P,U1,1*%
%TO.N,Net-(K3-Pad6)*%
X172750000Y-64250000D03*
%TO.P,U1,2*%
%TO.N,GND*%
X172750000Y-69250000D03*
%TO.P,U1,3*%
%TO.N,Net-(K4-Pad6)*%
X172750000Y-74250000D03*
%TO.P,U1,4*%
%TO.N,GND*%
X172750000Y-79250000D03*
%TO.P,U1,5*%
%TO.N,Net-(K5-Pad6)*%
X172750000Y-84250000D03*
%TO.P,U1,6*%
%TO.N,GND*%
X172750000Y-89250000D03*
%TD*%
%TO.P,U3,1*%
%TO.N,Net-(R1-Pad1)*%
X102500000Y-63000000D03*
%TO.P,U3,2*%
%TO.N,Net-(R2-Pad1)*%
X102500000Y-68000000D03*
%TO.P,U3,3*%
%TO.N,Net-(R3-Pad2)*%
X102500000Y-73000000D03*
%TO.P,U3,4*%
%TO.N,Net-(R4-Pad1)*%
X102500000Y-78000000D03*
%TO.P,U3,5*%
%TO.N,Net-(R5-Pad1)*%
X102500000Y-83000000D03*
%TO.P,U3,6*%
%TO.N,unconnected-(U3-Pad6)*%
X102500000Y-88000000D03*
%TD*%
D23*
%TO.P,R6,1*%
%TO.N,Net-(K1-Pad4)*%
X116800000Y-52325000D03*
%TO.P,R6,2*%
%TO.N,GND*%
X116800000Y-49400000D03*
%TD*%
D18*
%TO.P,K2,1*%
%TO.N,+5V*%
X135500000Y-63700000D03*
%TO.P,K2,2*%
%TO.N,Net-(K2-Pad2)*%
X135500000Y-66900000D03*
%TO.P,K2,3*%
%TO.N,Net-(K1-Pad2)*%
X135500000Y-69100000D03*
%TO.P,K2,4*%
%TO.N,Net-(K2-Pad4)*%
X135500000Y-71300000D03*
%TO.P,K2,5*%
%TO.N,Net-(K2-Pad5)*%
X142500000Y-71300000D03*
%TO.P,K2,6*%
%TO.N,Net-(K2-Pad6)*%
X142500000Y-69100000D03*
%TO.P,K2,7*%
%TO.N,Net-(K2-Pad2)*%
X142500000Y-66900000D03*
%TO.P,K2,8*%
%TO.N,Net-(D2-A)*%
X142500000Y-63700000D03*
%TD*%
D21*
%TO.P,D5,1,K*%
%TO.N,+5V*%
X162750000Y-80600000D03*
%TO.P,D5,2,A*%
%TO.N,Net-(D5-A)*%
X162750000Y-84900000D03*
%TD*%
D24*
%TO.P,Q5,1,B*%
%TO.N,Net-(Q5-B)*%
X143250000Y-87250000D03*
%TO.P,Q5,2,E*%
%TO.N,GND*%
X145150000Y-87250000D03*
%TO.P,Q5,3,C*%
%TO.N,Net-(D5-A)*%
X144200000Y-85375000D03*
%TD*%
D18*
%TO.P,K3,1*%
%TO.N,+5V*%
X155000000Y-47950000D03*
%TO.P,K3,2*%
%TO.N,unconnected-(K3-Pad2)*%
X155000000Y-51150000D03*
%TO.P,K3,3*%
%TO.N,unconnected-(K3-Pad3)*%
X155000000Y-53350000D03*
%TO.P,K3,4*%
%TO.N,unconnected-(K3-Pad4)*%
X155000000Y-55550000D03*
%TO.P,K3,5*%
%TO.N,Net-(K2-Pad6)*%
X162000000Y-55550000D03*
%TO.P,K3,6*%
%TO.N,Net-(K3-Pad6)*%
X162000000Y-53350000D03*
%TO.P,K3,7*%
%TO.N,GND*%
X162000000Y-51150000D03*
%TO.P,K3,8*%
%TO.N,Net-(D3-A)*%
X162000000Y-47950000D03*
%TD*%
D24*
%TO.P,Q4,1,B*%
%TO.N,Net-(Q4-B)*%
X134550000Y-83187500D03*
%TO.P,Q4,2,E*%
%TO.N,GND*%
X136450000Y-83187500D03*
%TO.P,Q4,3,C*%
%TO.N,Net-(D4-A)*%
X135500000Y-81312500D03*
%TD*%
D20*
%TO.P,R1,1*%
%TO.N,Net-(R1-Pad1)*%
X108787500Y-62500000D03*
%TO.P,R1,2*%
%TO.N,Net-(Q1-B)*%
X111712500Y-62500000D03*
%TD*%
D24*
%TO.P,Q2,1,B*%
%TO.N,Net-(Q2-B)*%
X122250000Y-70250000D03*
%TO.P,Q2,2,E*%
%TO.N,GND*%
X124150000Y-70250000D03*
%TO.P,Q2,3,C*%
%TO.N,Net-(D2-A)*%
X123200000Y-68375000D03*
%TD*%
D20*
%TO.P,R2,1*%
%TO.N,Net-(R2-Pad1)*%
X111537500Y-71600000D03*
%TO.P,R2,2*%
%TO.N,Net-(Q2-B)*%
X114462500Y-71600000D03*
%TD*%
%TO.P,R5,1*%
%TO.N,Net-(R5-Pad1)*%
X119037500Y-89750000D03*
%TO.P,R5,2*%
%TO.N,Net-(Q5-B)*%
X121962500Y-89750000D03*
%TD*%
D25*
%TO.P,K1,1*%
%TO.N,+5V*%
X124300000Y-55500000D03*
%TO.P,K1,2*%
%TO.N,Net-(K1-Pad2)*%
X121100000Y-55500000D03*
%TO.P,K1,3*%
%TO.N,Net-(K1-Pad3)*%
X118900000Y-55500000D03*
%TO.P,K1,4*%
%TO.N,Net-(K1-Pad4)*%
X116700000Y-55500000D03*
%TO.P,K1,5*%
%TO.N,unconnected-(K1-Pad5)*%
X116700000Y-62500000D03*
%TO.P,K1,6*%
%TO.N,unconnected-(K1-Pad6)*%
X118900000Y-62500000D03*
%TO.P,K1,7*%
%TO.N,unconnected-(K1-Pad7)*%
X121100000Y-62500000D03*
%TO.P,K1,8*%
%TO.N,Net-(D1-A)*%
X124300000Y-62500000D03*
%TD*%
D24*
%TO.P,Q3,1,B*%
%TO.N,Net-(Q3-B)*%
X126750000Y-78500000D03*
%TO.P,Q3,2,E*%
%TO.N,GND*%
X128650000Y-78500000D03*
%TO.P,Q3,3,C*%
%TO.N,Net-(D3-A)*%
X127700000Y-76625000D03*
%TD*%
D26*
%TO.P,U2,1*%
%TO.N,Net-(K1-Pad3)*%
X124500000Y-47500000D03*
%TO.P,U2,2*%
%TO.N,GND*%
X129500000Y-47500000D03*
%TO.P,U2,3*%
%TO.N,Net-(K2-Pad4)*%
X134500000Y-47500000D03*
%TO.P,U2,4*%
%TO.N,GND*%
X139500000Y-47500000D03*
%TO.P,U2,5*%
%TO.N,Net-(K2-Pad5)*%
X144500000Y-47500000D03*
%TO.P,U2,6*%
%TO.N,GND*%
X149500000Y-47500000D03*
%TD*%
D27*
%TO.P,Q1,1,B*%
%TO.N,Net-(Q1-B)*%
X111000000Y-66050000D03*
%TO.P,Q1,2,E*%
%TO.N,GND*%
X111000000Y-67950000D03*
%TO.P,Q1,3,C*%
%TO.N,Net-(D1-A)*%
X112875000Y-67000000D03*
%TD*%
D28*
%TO.P,D4,1,K*%
%TO.N,+5V*%
X156850000Y-60750000D03*
%TO.P,D4,2,A*%
%TO.N,Net-(D4-A)*%
X161150000Y-60750000D03*
%TD*%
%TO.P,D2,1,K*%
%TO.N,+5V*%
X137100000Y-57500000D03*
%TO.P,D2,2,A*%
%TO.N,Net-(D2-A)*%
X141400000Y-57500000D03*
%TD*%
D29*
%TO.N,+5V*%
X153500000Y-60750000D03*
X153500000Y-67250000D03*
X136500000Y-53500000D03*
X155000000Y-45250000D03*
X169400000Y-46600000D03*
X152750000Y-52250000D03*
%TO.N,Net-(D3-A)*%
X154750000Y-43250000D03*
X160250000Y-43000000D03*
%TD*%
D30*
%TO.N,+5V*%
X137100000Y-54100000D02*
X136500000Y-53500000D01*
X150500000Y-84250000D02*
X150500000Y-86460000D01*
X137100000Y-57500000D02*
X137100000Y-62090000D01*
X124000000Y-57500000D02*
X124000000Y-57250000D01*
X126750000Y-51250000D02*
X121750000Y-51250000D01*
X136500000Y-53500000D02*
X134000000Y-53500000D01*
X153250000Y-51750000D02*
X152750000Y-52250000D01*
X154550000Y-47950000D02*
X153250000Y-49250000D01*
X135500000Y-63700000D02*
X135500000Y-63690000D01*
X156350000Y-80600000D02*
X156250000Y-80500000D01*
X169250000Y-46750000D02*
X169400000Y-46600000D01*
X156250000Y-80500000D02*
X154250000Y-80500000D01*
X110200000Y-53300000D02*
X110200000Y-51703185D01*
X153640000Y-67390000D02*
X153500000Y-67250000D01*
X169400000Y-43500000D02*
X169400000Y-46600000D01*
X121000000Y-57500000D02*
X124000000Y-57500000D01*
X153500000Y-60750000D02*
X156850000Y-60750000D01*
X126750000Y-43500000D02*
X126750000Y-51000000D01*
X157390000Y-67390000D02*
X157500000Y-67500000D01*
X110200000Y-51703185D02*
X118403185Y-43500000D01*
X152750000Y-52250000D02*
X152750000Y-60000000D01*
X120000000Y-56500000D02*
X121000000Y-57500000D01*
X156000000Y-67390000D02*
X153640000Y-67390000D01*
D31*
X120000000Y-53000000D02*
X120000000Y-56500000D01*
D30*
X124000000Y-57250000D02*
X124310000Y-56940000D01*
X155000000Y-47950000D02*
X154550000Y-47950000D01*
X137100000Y-57500000D02*
X137100000Y-54100000D01*
X158250000Y-78500000D02*
X158250000Y-67750000D01*
X124310000Y-56940000D02*
X124310000Y-55500000D01*
X103500000Y-56500000D02*
X107000000Y-56500000D01*
X158000000Y-67500000D02*
X157500000Y-67500000D01*
X126750000Y-51000000D02*
X126750000Y-51250000D01*
X155000000Y-47950000D02*
X155000000Y-45250000D01*
X127500000Y-51750000D02*
X126750000Y-51000000D01*
X135500000Y-63690000D02*
X137100000Y-62090000D01*
X118403185Y-43500000D02*
X126750000Y-43500000D01*
X129650000Y-55500000D02*
X129750000Y-55600000D01*
X162750000Y-80600000D02*
X156350000Y-80600000D01*
X156250000Y-80500000D02*
X158250000Y-78500000D01*
X121750000Y-51250000D02*
X120000000Y-53000000D01*
X156000000Y-67390000D02*
X157390000Y-67390000D01*
X154250000Y-80500000D02*
X150500000Y-84250000D01*
X153250000Y-49250000D02*
X153250000Y-51750000D01*
X152750000Y-60000000D02*
X153500000Y-60750000D01*
X107000000Y-56500000D02*
X110200000Y-53300000D01*
X134000000Y-53500000D02*
X132250000Y-51750000D01*
X158250000Y-67750000D02*
X158000000Y-67500000D01*
X132250000Y-51750000D02*
X127500000Y-51750000D01*
X124310000Y-55500000D02*
X129650000Y-55500000D01*
%TO.N,Net-(D1-A)*%
X114200000Y-66400000D02*
X114200000Y-59200000D01*
X112937500Y-67000000D02*
X112875000Y-67000000D01*
X114175000Y-66375000D02*
X114200000Y-66400000D01*
X112875000Y-67000000D02*
X113500000Y-66375000D01*
X114000000Y-59000000D02*
X124250000Y-59000000D01*
X127150000Y-62500000D02*
X129750000Y-59900000D01*
X113500000Y-66375000D02*
X114175000Y-66375000D01*
X124250000Y-59000000D02*
X124250000Y-59500000D01*
X124310000Y-59560000D02*
X124310000Y-62500000D01*
X124250000Y-59500000D02*
X124310000Y-59560000D01*
X114200000Y-59200000D02*
X114000000Y-59000000D01*
X124310000Y-62500000D02*
X127150000Y-62500000D01*
%TO.N,Net-(D2-A)*%
X142500000Y-63690000D02*
X141400000Y-62590000D01*
D31*
X131000000Y-70250000D02*
X130750000Y-70000000D01*
D30*
X127750000Y-65750000D02*
X124500000Y-65750000D01*
X130750000Y-68750000D02*
X127750000Y-65750000D01*
D31*
X142500000Y-63700000D02*
X143450000Y-63700000D01*
D30*
X142500000Y-63700000D02*
X142500000Y-63690000D01*
D31*
X143450000Y-63700000D02*
X144500000Y-64750000D01*
X144500000Y-67700000D02*
X144200000Y-68000000D01*
X144200000Y-68000000D02*
X139000000Y-68000000D01*
X139000000Y-68000000D02*
X136750000Y-70250000D01*
D30*
X130750000Y-70000000D02*
X130750000Y-68750000D01*
X124500000Y-65750000D02*
X123200000Y-67050000D01*
D31*
X144500000Y-64750000D02*
X144500000Y-67700000D01*
D30*
X141400000Y-57500000D02*
X141400000Y-62590000D01*
D31*
X136750000Y-70250000D02*
X131000000Y-70250000D01*
D30*
X123200000Y-67050000D02*
X123200000Y-68375000D01*
%TO.N,Net-(D3-A)*%
X160500000Y-43250000D02*
X161500000Y-43250000D01*
X152250000Y-50750000D02*
X152250000Y-44250000D01*
X165100000Y-43500000D02*
X162250000Y-43500000D01*
X151250000Y-75000000D02*
X151250000Y-51750000D01*
X162250000Y-43500000D02*
X162000000Y-43750000D01*
X153250000Y-43250000D02*
X154750000Y-43250000D01*
X152250000Y-44250000D02*
X153250000Y-43250000D01*
X162000000Y-47950000D02*
X162000000Y-43750000D01*
X151250000Y-51750000D02*
X152250000Y-50750000D01*
X127700000Y-76625000D02*
X129325000Y-75000000D01*
X161500000Y-43250000D02*
X162000000Y-43750000D01*
X129325000Y-75000000D02*
X151250000Y-75000000D01*
X160250000Y-43000000D02*
X160500000Y-43250000D01*
%TO.N,Net-(D4-A)*%
X161150000Y-60750000D02*
X163000000Y-60750000D01*
X164000000Y-64500000D02*
X163000000Y-65500000D01*
X135500000Y-81312500D02*
X137812500Y-79000000D01*
X159500000Y-66000000D02*
X159500000Y-66250000D01*
X163000000Y-65500000D02*
X163000000Y-67390000D01*
X163000000Y-60750000D02*
X164000000Y-61750000D01*
X152250000Y-79000000D02*
X152250000Y-66000000D01*
X153500000Y-65500000D02*
X153750000Y-65750000D01*
X159500000Y-66250000D02*
X160640000Y-67390000D01*
X152750000Y-65500000D02*
X153500000Y-65500000D01*
X159250000Y-65750000D02*
X159500000Y-66000000D01*
X153750000Y-65750000D02*
X159250000Y-65750000D01*
X160640000Y-67390000D02*
X163000000Y-67390000D01*
X164000000Y-61750000D02*
X164000000Y-64500000D01*
X137812500Y-79000000D02*
X152250000Y-79000000D01*
X152250000Y-66000000D02*
X152750000Y-65500000D01*
%TO.N,Net-(D5-A)*%
X148000000Y-87500000D02*
X148000000Y-83250000D01*
X152750000Y-88250000D02*
X148750000Y-88250000D01*
X147500000Y-82750000D02*
X145750000Y-82750000D01*
X145750000Y-82750000D02*
X144200000Y-84300000D01*
X148750000Y-88250000D02*
X148000000Y-87500000D01*
X148000000Y-83250000D02*
X147500000Y-82750000D01*
X162750000Y-84900000D02*
X161350000Y-84900000D01*
X161350000Y-84900000D02*
X159790000Y-86460000D01*
X153540000Y-86460000D02*
X153500000Y-86500000D01*
X153500000Y-86500000D02*
X153500000Y-87500000D01*
X144200000Y-84300000D02*
X144200000Y-85375000D01*
X159790000Y-86460000D02*
X153540000Y-86460000D01*
X153500000Y-87500000D02*
X152750000Y-88250000D01*
%TO.N,Net-(K1-Pad2)*%
X131250000Y-68000000D02*
X131250000Y-64000000D01*
X131750000Y-53000000D02*
X122000000Y-53000000D01*
X134000000Y-61250000D02*
X134000000Y-55250000D01*
X134000000Y-55250000D02*
X131750000Y-53000000D01*
X135500000Y-69100000D02*
X132350000Y-69100000D01*
X122000000Y-53000000D02*
X121100000Y-53900000D01*
X121100000Y-53900000D02*
X121100000Y-55500000D01*
X132350000Y-69100000D02*
X131250000Y-68000000D01*
X131250000Y-64000000D02*
X134000000Y-61250000D01*
D32*
%TO.N,Net-(K1-Pad4)*%
X116700000Y-52425000D02*
X116800000Y-52325000D01*
D30*
X116700000Y-55500000D02*
X116700000Y-52425000D01*
%TO.N,Net-(K1-Pad3)*%
X118900000Y-55500000D02*
X118900000Y-51600000D01*
X118900000Y-51600000D02*
X123000000Y-47500000D01*
X123000000Y-47500000D02*
X124500000Y-47500000D01*
%TO.N,Net-(K2-Pad5)*%
X145250000Y-51250000D02*
X144500000Y-50500000D01*
X147940000Y-71310000D02*
X148000000Y-71250000D01*
X148000000Y-54500000D02*
X145250000Y-51750000D01*
X142500000Y-71310000D02*
X147940000Y-71310000D01*
X148000000Y-71250000D02*
X148000000Y-54500000D01*
X145250000Y-51750000D02*
X145250000Y-51250000D01*
X144500000Y-50500000D02*
X144500000Y-47500000D01*
%TO.N,Net-(K2-Pad2)*%
X140850000Y-65250000D02*
X142500000Y-66900000D01*
X137250000Y-65250000D02*
X140850000Y-65250000D01*
X135500000Y-66900000D02*
X135600000Y-66900000D01*
X135600000Y-66900000D02*
X137250000Y-65250000D01*
%TO.N,Net-(K2-Pad4)*%
X139500000Y-50750000D02*
X137250000Y-50750000D01*
X136940000Y-71310000D02*
X138050000Y-70200000D01*
X146250000Y-57500000D02*
X146250000Y-54500000D01*
X146750000Y-58000000D02*
X146250000Y-57500000D01*
X136930000Y-71300000D02*
X136940000Y-71310000D01*
X135500000Y-71300000D02*
X136930000Y-71300000D01*
X146750000Y-70200000D02*
X146750000Y-58000000D01*
X138050000Y-70200000D02*
X146750000Y-70200000D01*
X146250000Y-54500000D02*
X142750000Y-51000000D01*
X137250000Y-50750000D02*
X134000000Y-47500000D01*
X139750000Y-51000000D02*
X139500000Y-50750000D01*
X142750000Y-51000000D02*
X139750000Y-51000000D01*
%TO.N,Net-(K2-Pad6)*%
X142500000Y-69100000D02*
X145400000Y-69100000D01*
D31*
X170000000Y-52250000D02*
X158750000Y-52250000D01*
D30*
X160000000Y-75000000D02*
X159750000Y-75000000D01*
X164050000Y-55550000D02*
X162000000Y-55550000D01*
X173289950Y-55300000D02*
X170500000Y-55300000D01*
X158000000Y-41750000D02*
X158250000Y-41500000D01*
X163000000Y-74990000D02*
X160010000Y-74990000D01*
X133500000Y-50750000D02*
X132000000Y-50750000D01*
X137500000Y-51750000D02*
X134500000Y-51750000D01*
X158250000Y-41500000D02*
X158250000Y-51750000D01*
X179500000Y-61510050D02*
X173289950Y-55300000D01*
X140500000Y-54750000D02*
X137500000Y-51750000D01*
X145400000Y-69100000D02*
X145750000Y-68750000D01*
X145750000Y-58500000D02*
X144500000Y-57250000D01*
X132000000Y-42250000D02*
X132500000Y-41750000D01*
X157500000Y-94070000D02*
X175910000Y-94070000D01*
X170500000Y-55300000D02*
X170500000Y-52750000D01*
X170500000Y-52750000D02*
X170000000Y-52250000D01*
X175910000Y-94070000D02*
X175920000Y-94080000D01*
X160010000Y-74990000D02*
X160000000Y-75000000D01*
X132000000Y-50500000D02*
X132000000Y-42250000D01*
X145750000Y-68750000D02*
X145750000Y-58500000D01*
X134500000Y-51750000D02*
X133500000Y-50750000D01*
X158250000Y-55000000D02*
X158810000Y-55560000D01*
X159750000Y-75000000D02*
X159750000Y-68750000D01*
X144500000Y-55000000D02*
X144250000Y-54750000D01*
X166250000Y-68800000D02*
X166250000Y-57750000D01*
X179500000Y-90500000D02*
X179500000Y-61510050D01*
X166250000Y-57750000D02*
X164050000Y-55550000D01*
X159800000Y-68800000D02*
X166250000Y-68800000D01*
X175920000Y-94080000D02*
X179500000Y-90500000D01*
X144500000Y-57250000D02*
X144500000Y-55000000D01*
X144250000Y-54750000D02*
X140500000Y-54750000D01*
X158750000Y-52250000D02*
X158250000Y-51750000D01*
X158250000Y-51750000D02*
X158250000Y-55000000D01*
X132500000Y-41750000D02*
X158000000Y-41750000D01*
X159750000Y-68750000D02*
X159800000Y-68800000D01*
X158820000Y-55550000D02*
X162000000Y-55550000D01*
X158810000Y-55560000D02*
X158820000Y-55550000D01*
%TO.N,Net-(K3-Pad6)*%
X167750000Y-54000000D02*
X167500000Y-54000000D01*
X172750000Y-57000000D02*
X168500000Y-57000000D01*
X167750000Y-56250000D02*
X167750000Y-54000000D01*
X168500000Y-57000000D02*
X167750000Y-56250000D01*
X172750000Y-64250000D02*
X172750000Y-57000000D01*
X167500000Y-54000000D02*
X166850000Y-53350000D01*
X166850000Y-53350000D02*
X162000000Y-53350000D01*
%TO.N,GND*%
X119500000Y-80750000D02*
X118250000Y-82000000D01*
X99000000Y-65750000D02*
X99000000Y-70500000D01*
X106950000Y-77750000D02*
X106950000Y-77700000D01*
D33*
X145500000Y-95000000D02*
X145500000Y-95500000D01*
D30*
X107250000Y-82500000D02*
X105250000Y-80500000D01*
X96600000Y-51600000D02*
X96600000Y-60400000D01*
D33*
X173250000Y-38750000D02*
X128250000Y-38750000D01*
D30*
X119850000Y-74950000D02*
X124150000Y-70650000D01*
D33*
X153500000Y-97000000D02*
X154750000Y-95750000D01*
X175500000Y-97000000D02*
X181250000Y-91250000D01*
D30*
X103750000Y-47750000D02*
X103750000Y-48723172D01*
X100873172Y-51600000D02*
X96600000Y-51600000D01*
D33*
X144875000Y-94375000D02*
X145500000Y-95000000D01*
D30*
X145150000Y-94100000D02*
X144875000Y-94375000D01*
X136000000Y-85250000D02*
X120750000Y-85250000D01*
D33*
X172750000Y-69250000D02*
X177750000Y-69250000D01*
D30*
X99250000Y-65500000D02*
X99000000Y-65750000D01*
X111800000Y-54400000D02*
X111800000Y-51600000D01*
X109750000Y-74950000D02*
X119850000Y-74950000D01*
X149500000Y-43500000D02*
X139500000Y-43500000D01*
D33*
X147000000Y-97000000D02*
X153000000Y-97000000D01*
D30*
X107000000Y-72200000D02*
X109750000Y-74950000D01*
D33*
X118250000Y-38750000D02*
X127000000Y-38750000D01*
D30*
X163000000Y-70590000D02*
X166660000Y-70590000D01*
D33*
X109250000Y-47750000D02*
X118250000Y-38750000D01*
D30*
X99000000Y-92250000D02*
X99000000Y-80500000D01*
X114000000Y-49400000D02*
X116800000Y-49400000D01*
D33*
X111500000Y-94250000D02*
X110750000Y-94250000D01*
D30*
X107000000Y-70750000D02*
X107000000Y-72200000D01*
D31*
X111000000Y-67950000D02*
X107300000Y-67950000D01*
D30*
X99000000Y-70500000D02*
X99000000Y-75500000D01*
X172080000Y-69920000D02*
X172750000Y-69250000D01*
X106750000Y-68000000D02*
X106250000Y-67500000D01*
D33*
X177250000Y-89250000D02*
X177750000Y-88750000D01*
D30*
X118250000Y-82000000D02*
X111200000Y-82000000D01*
X126650000Y-72750000D02*
X124150000Y-70250000D01*
X108600000Y-57600000D02*
X111800000Y-54400000D01*
X136450000Y-83187500D02*
X136450000Y-84800000D01*
D33*
X154750000Y-90000000D02*
X155080000Y-89670000D01*
D30*
X109250000Y-86750000D02*
X107250000Y-84750000D01*
X119250000Y-86750000D02*
X109250000Y-86750000D01*
D33*
X166200000Y-86050000D02*
X166200000Y-82050000D01*
D30*
X139500000Y-43500000D02*
X139500000Y-47500000D01*
D33*
X153000000Y-97000000D02*
X175500000Y-97000000D01*
D30*
X96400000Y-60600000D02*
X108400000Y-60600000D01*
D33*
X166200000Y-87225000D02*
X166200000Y-86050000D01*
X177750000Y-79250000D02*
X172750000Y-79250000D01*
D30*
X136450000Y-84800000D02*
X136000000Y-85250000D01*
D33*
X154750000Y-95750000D02*
X154750000Y-90000000D01*
D30*
X149500000Y-47500000D02*
X149500000Y-43500000D01*
X111625000Y-94375000D02*
X111500000Y-94250000D01*
D33*
X177750000Y-88750000D02*
X177750000Y-79000000D01*
X155080000Y-89670000D02*
X157500000Y-89670000D01*
X173000000Y-50750000D02*
X173000000Y-50000000D01*
D30*
X108600000Y-60400000D02*
X108600000Y-57600000D01*
D33*
X173000000Y-50000000D02*
X173000000Y-39000000D01*
D30*
X99250000Y-70750000D02*
X107000000Y-70750000D01*
X106950000Y-77700000D02*
X104750000Y-75500000D01*
X166660000Y-70590000D02*
X168000000Y-69250000D01*
X124150000Y-70650000D02*
X124150000Y-70250000D01*
X128650000Y-80350000D02*
X128250000Y-80750000D01*
D32*
X107300000Y-67950000D02*
X107250000Y-68000000D01*
D30*
X127250000Y-72750000D02*
X126650000Y-72750000D01*
D33*
X172750000Y-89250000D02*
X177250000Y-89250000D01*
D30*
X153000000Y-97000000D02*
X153500000Y-97000000D01*
D33*
X162000000Y-51150000D02*
X163350000Y-51150000D01*
X129500000Y-41250000D02*
X127000000Y-38750000D01*
D30*
X128000000Y-73500000D02*
X127250000Y-72750000D01*
D33*
X103750000Y-47750000D02*
X109250000Y-47750000D01*
X127000000Y-38750000D02*
X128250000Y-38750000D01*
D30*
X107250000Y-68000000D02*
X106750000Y-68000000D01*
D33*
X169000000Y-79250000D02*
X172750000Y-79250000D01*
D30*
X107250000Y-84750000D02*
X107250000Y-82500000D01*
X108400000Y-60600000D02*
X108600000Y-60400000D01*
D33*
X108750000Y-92250000D02*
X99000000Y-92250000D01*
D30*
X173000000Y-39000000D02*
X173250000Y-38750000D01*
X168000000Y-69250000D02*
X172750000Y-69250000D01*
X149500000Y-47500000D02*
X149500000Y-73500000D01*
D33*
X177750000Y-69250000D02*
X177750000Y-79000000D01*
X144875000Y-94375000D02*
X111625000Y-94375000D01*
D30*
X111200000Y-82000000D02*
X106950000Y-77750000D01*
D33*
X145500000Y-95500000D02*
X147000000Y-97000000D01*
X164500000Y-50000000D02*
X173000000Y-50000000D01*
X129500000Y-47500000D02*
X129500000Y-41250000D01*
X181250000Y-58500000D02*
X173500000Y-50750000D01*
D30*
X111800000Y-51600000D02*
X114000000Y-49400000D01*
X120750000Y-85250000D02*
X119250000Y-86750000D01*
X177750000Y-79000000D02*
X177750000Y-79250000D01*
D33*
X181250000Y-91250000D02*
X181250000Y-58500000D01*
X110750000Y-94250000D02*
X108750000Y-92250000D01*
D30*
X106250000Y-67500000D02*
X106250000Y-65500000D01*
D33*
X173230000Y-50480000D02*
X173500000Y-50750000D01*
D30*
X128250000Y-80750000D02*
X119500000Y-80750000D01*
X149500000Y-73500000D02*
X128000000Y-73500000D01*
X145150000Y-87250000D02*
X145150000Y-94100000D01*
D33*
X163350000Y-51150000D02*
X164500000Y-50000000D01*
D30*
X105250000Y-80500000D02*
X99000000Y-80500000D01*
X99000000Y-70500000D02*
X99250000Y-70750000D01*
X104750000Y-75500000D02*
X99000000Y-75500000D01*
D33*
X173500000Y-50750000D02*
X173000000Y-50750000D01*
D30*
X96600000Y-60400000D02*
X96400000Y-60600000D01*
D33*
X157500000Y-89670000D02*
X163755000Y-89670000D01*
D30*
X106250000Y-65500000D02*
X99250000Y-65500000D01*
X99000000Y-75500000D02*
X99000000Y-80500000D01*
X103750000Y-48723172D02*
X100873172Y-51600000D01*
D33*
X163755000Y-89670000D02*
X166200000Y-87225000D01*
X166200000Y-82050000D02*
X169000000Y-79250000D01*
D30*
X128650000Y-78500000D02*
X128650000Y-80350000D01*
X99250000Y-65500000D02*
X99000000Y-65500000D01*
%TO.N,Net-(K4-Pad6)*%
X165540000Y-72790000D02*
X167000000Y-74250000D01*
X163000000Y-72790000D02*
X165540000Y-72790000D01*
X167000000Y-74250000D02*
X172750000Y-74250000D01*
%TO.N,Net-(K5-Pad6)*%
X167500000Y-89000000D02*
X167500000Y-85500000D01*
X167500000Y-85500000D02*
X168750000Y-84250000D01*
X157500000Y-91870000D02*
X164630000Y-91870000D01*
X168750000Y-84250000D02*
X172750000Y-84250000D01*
X164630000Y-91870000D02*
X167500000Y-89000000D01*
%TO.N,Net-(Q1-B)*%
X111712500Y-62500000D02*
X111712500Y-63537500D01*
X111712500Y-63537500D02*
X111062500Y-64187500D01*
X111062500Y-64187500D02*
X111062500Y-66050000D01*
D31*
%TO.N,Net-(Q2-B)*%
X115062500Y-71000000D02*
X118500000Y-71000000D01*
X118500000Y-71000000D02*
X119000000Y-70500000D01*
D30*
X119000000Y-70250000D02*
X122250000Y-70250000D01*
X119000000Y-70500000D02*
X119000000Y-70250000D01*
D31*
X114462500Y-71600000D02*
X115062500Y-71000000D01*
D30*
%TO.N,Net-(Q3-B)*%
X114250000Y-77400000D02*
X115350000Y-78500000D01*
X115350000Y-78500000D02*
X126750000Y-78500000D01*
%TO.N,Net-(Q4-B)*%
X114500000Y-84250000D02*
X118750000Y-84250000D01*
X120250000Y-82750000D02*
X134112500Y-82750000D01*
X134112500Y-82750000D02*
X134550000Y-83187500D01*
X118750000Y-84250000D02*
X120250000Y-82750000D01*
%TO.N,Net-(Q5-B)*%
X121962500Y-89750000D02*
X124462500Y-87250000D01*
X124462500Y-87250000D02*
X143250000Y-87250000D01*
%TO.N,Net-(R1-Pad1)*%
X108787500Y-62500000D02*
X103000000Y-62500000D01*
X103000000Y-62500000D02*
X102500000Y-63000000D01*
%TO.N,Net-(R2-Pad1)*%
X110200000Y-71600000D02*
X111537500Y-71600000D01*
X108350000Y-69750000D02*
X110200000Y-71600000D01*
X104500000Y-68000000D02*
X106250000Y-69750000D01*
X102500000Y-68000000D02*
X104500000Y-68000000D01*
X106250000Y-69750000D02*
X108350000Y-69750000D01*
%TO.N,Net-(R3-Pad2)*%
X111325000Y-77400000D02*
X108725000Y-77400000D01*
X108725000Y-77400000D02*
X104325000Y-73000000D01*
X104325000Y-73000000D02*
X102500000Y-73000000D01*
%TO.N,Net-(R4-Pad1)*%
X110750000Y-84250000D02*
X111575000Y-84250000D01*
X102500000Y-78000000D02*
X105000000Y-78000000D01*
X110250000Y-83750000D02*
X110750000Y-84250000D01*
X110250000Y-83250000D02*
X110250000Y-83750000D01*
X105000000Y-78000000D02*
X110250000Y-83250000D01*
%TO.N,Net-(R5-Pad1)*%
X102500000Y-83000000D02*
X103750000Y-83000000D01*
X110500000Y-89750000D02*
X119037500Y-89750000D01*
X103750000Y-83000000D02*
X110500000Y-89750000D01*
D32*
%TO.N,unconnected-(U3-Pad6)*%
X102500000Y-89000000D02*
X102900000Y-89400000D01*
%TD*%
%TA.AperFunction,Conductor*%
%TO.N,+5V*%
G36*
X155682570Y-45532715D02*
G01*
X155688894Y-45539055D01*
X155689069Y-45547532D01*
X155252807Y-46742313D01*
X155246751Y-46748909D01*
X155241817Y-46750000D01*
X154758183Y-46750000D01*
X154749910Y-46746573D01*
X154747193Y-46742313D01*
X154310930Y-45547529D01*
X154311311Y-45538585D01*
X154317428Y-45532715D01*
X154995510Y-45250865D01*
X155004462Y-45250855D01*
X155682570Y-45532715D01*
G37*
%TD.AperFunction*%
%TD*%
%TA.AperFunction,Conductor*%
%TO.N,+5V*%
G36*
X153797524Y-66562285D02*
G01*
X153798175Y-66562580D01*
X154965616Y-67136785D01*
X154971527Y-67143512D01*
X154972152Y-67147284D01*
X154972152Y-67630913D01*
X154968725Y-67639186D01*
X154963349Y-67642249D01*
X153796826Y-67940401D01*
X153787962Y-67939129D01*
X153783125Y-67933556D01*
X153657329Y-67630913D01*
X153500865Y-67254489D01*
X153500855Y-67245536D01*
X153782230Y-66568596D01*
X153788569Y-66562274D01*
X153797524Y-66562285D01*
G37*
%TD.AperFunction*%
%TD*%
%TA.AperFunction,Conductor*%
%TO.N,+5V*%
G36*
X154992313Y-60497193D02*
G01*
X154998909Y-60503249D01*
X155000000Y-60508183D01*
X155000000Y-60991816D01*
X154996573Y-61000089D01*
X154992313Y-61002806D01*
X153797532Y-61439069D01*
X153788585Y-61438688D01*
X153782715Y-61432570D01*
X153500865Y-60754489D01*
X153500855Y-60745536D01*
X153782715Y-60067428D01*
X153789055Y-60061105D01*
X153797529Y-60060930D01*
X154992313Y-60497193D01*
G37*
%TD.AperFunction*%
%TD*%
%TA.AperFunction,Conductor*%
%TO.N,+5V*%
G36*
X169650090Y-45103427D02*
G01*
X169652807Y-45107687D01*
X170089069Y-46302467D01*
X170088688Y-46311414D01*
X170082570Y-46317284D01*
X169404491Y-46599133D01*
X169395536Y-46599144D01*
X169395509Y-46599133D01*
X168717429Y-46317284D01*
X168711105Y-46310944D01*
X168710930Y-46302470D01*
X169147193Y-45107686D01*
X169153249Y-45101091D01*
X169158183Y-45100000D01*
X169641817Y-45100000D01*
X169650090Y-45103427D01*
G37*
%TD.AperFunction*%
%TD*%
%TA.AperFunction,Conductor*%
%TO.N,+5V*%
G36*
X153496573Y-50952831D02*
G01*
X153500000Y-50961104D01*
X153500000Y-52238315D01*
X153496573Y-52246588D01*
X153488316Y-52250015D01*
X152754861Y-52250993D01*
X152746583Y-52247577D01*
X152746564Y-52247558D01*
X152737338Y-52238315D01*
X152530637Y-52031223D01*
X152227981Y-51727996D01*
X152224562Y-51719720D01*
X152227997Y-51711450D01*
X152996583Y-50952777D01*
X153004802Y-50949404D01*
X153488300Y-50949404D01*
X153496573Y-50952831D01*
G37*
%TD.AperFunction*%
%TD*%
%TA.AperFunction,Conductor*%
%TO.N,+5V*%
G36*
X153002859Y-59562463D02*
G01*
X153778675Y-60051831D01*
X153783844Y-60059142D01*
X153783245Y-60066198D01*
X153501856Y-60746510D01*
X153495527Y-60752845D01*
X153495508Y-60752853D01*
X152820135Y-61031628D01*
X152811180Y-61031617D01*
X152804856Y-61025277D01*
X152804216Y-61023196D01*
X152502929Y-59574743D01*
X152504599Y-59565945D01*
X152512001Y-59560905D01*
X152514384Y-59560660D01*
X152996618Y-59560660D01*
X153002859Y-59562463D01*
G37*
%TD.AperFunction*%
%TD*%
%TA.AperFunction,Conductor*%
%TO.N,+5V*%
G36*
X136211414Y-52811311D02*
G01*
X136217284Y-52817429D01*
X136499133Y-53495509D01*
X136499144Y-53504464D01*
X136499133Y-53504491D01*
X136217284Y-54182570D01*
X136210944Y-54188894D01*
X136202467Y-54189068D01*
X135907623Y-54081409D01*
X135007687Y-53752806D01*
X135001091Y-53746750D01*
X135000000Y-53741816D01*
X135000000Y-53258183D01*
X135003427Y-53249910D01*
X135007687Y-53247193D01*
X136202470Y-52810930D01*
X136211414Y-52811311D01*
G37*
%TD.AperFunction*%
%TD*%
%TA.AperFunction,Conductor*%
%TO.N,+5V*%
G36*
X153432570Y-52532715D02*
G01*
X153438894Y-52539055D01*
X153439069Y-52547532D01*
X153002807Y-53742313D01*
X152996751Y-53748909D01*
X152991817Y-53750000D01*
X152508183Y-53750000D01*
X152499910Y-53746573D01*
X152497193Y-53742313D01*
X152060930Y-52547529D01*
X152061311Y-52538585D01*
X152067428Y-52532715D01*
X152745510Y-52250865D01*
X152754462Y-52250855D01*
X153432570Y-52532715D01*
G37*
%TD.AperFunction*%
%TD*%
%TA.AperFunction,Conductor*%
%TO.N,Net-(D3-A)*%
G36*
X154461414Y-42561311D02*
G01*
X154467284Y-42567429D01*
X154749133Y-43245509D01*
X154749144Y-43254464D01*
X154749133Y-43254491D01*
X154467284Y-43932570D01*
X154460944Y-43938894D01*
X154452467Y-43939068D01*
X154157623Y-43831409D01*
X153257687Y-43502806D01*
X153251091Y-43496750D01*
X153250000Y-43491816D01*
X153250000Y-43008183D01*
X153253427Y-42999910D01*
X153257687Y-42997193D01*
X154452470Y-42560930D01*
X154461414Y-42561311D01*
G37*
%TD.AperFunction*%
%TD*%
%TA.AperFunction,Conductor*%
%TO.N,Net-(D3-A)*%
G36*
X160788389Y-42475455D02*
G01*
X161807196Y-43206802D01*
X161811918Y-43214411D01*
X161809878Y-43223130D01*
X161808646Y-43224580D01*
X161467564Y-43565662D01*
X161461021Y-43568960D01*
X160263417Y-43747994D01*
X160254728Y-43745828D01*
X160250116Y-43738153D01*
X160249987Y-43736434D01*
X160249297Y-43004152D01*
X160252715Y-42995879D01*
X160773306Y-42476675D01*
X160781582Y-42473260D01*
X160788389Y-42475455D01*
G37*
%TD.AperFunction*%
%TD*%
%TA.AperFunction,Conductor*%
%TO.N,+5V*%
G36*
X137239213Y-53499985D02*
G01*
X137247480Y-53503423D01*
X137250859Y-53510753D01*
X137292376Y-54030330D01*
X137348991Y-54738840D01*
X137346234Y-54747360D01*
X137338260Y-54751435D01*
X137337328Y-54751472D01*
X136854180Y-54751472D01*
X136846766Y-54748823D01*
X136844980Y-54747360D01*
X135979654Y-54038508D01*
X135975426Y-54030616D01*
X135978018Y-54022045D01*
X135978780Y-54021202D01*
X136496566Y-53502439D01*
X136504832Y-53499006D01*
X137239213Y-53499985D01*
G37*
%TD.AperFunction*%
%TD*%
M02*
